<?xml version="1.0" encoding="UTF-8"?>
<svg width="13px" height="14px" viewBox="0 0 13 14" version="1.1" xmlns="http://www.w3.org/2000/svg" xmlns:xlink="http://www.w3.org/1999/xlink">
    <!-- Generator: Sketch 52.2 (67145) - http://www.bohemiancoding.com/sketch -->
    <title>icons8-america</title>
    <desc>Created with Sketch.</desc>
    <g id="Recruit-Setup" stroke="none" stroke-width="1" fill="none" fill-rule="evenodd">
        <g id="Job-View" transform="translate(-419.000000, -200.000000)" fill="#000000" fill-rule="nonzero">
            <g id="Group" transform="translate(406.000000, 146.000000)">
                <g id="icons8-america" transform="translate(13.000000, 54.000000)">
                    <path d="M6.6464844,0.0371094 C5.8985828,0.0205342 5.1484093,0.1322257 4.4355469,0.3769531 C2.530983,0.9762989 0.9809505,2.5263097 0.3554688,4.4257812 C-0.32759779,6.3593621 -0.00387156,8.5830071 1.1816406,10.248047 C2.3138067,11.913733 4.2489159,12.970742 6.2695312,13.03125 C8.4040928,13.11901 10.516618,12.12101 11.767578,10.394531 C11.7688872,10.3932362 11.7701892,10.3919342 11.771484,10.390625 C12.570439,9.265367 13.009766,7.8899363 13.009766,6.5253906 C13.009766,4.4220268 11.957089,2.3403571 10.169922,1.1738281 C9.338017,0.5952565 8.3809169,0.2322116 7.3925781,0.0957031 C7.1454563,0.0615709 6.8957849,0.0426344 6.6464844,0.0371094 Z M6.6210938,1.0390625 C6.7593919,1.0423453 6.8973621,1.0587171 7.0351562,1.0722656 L7,1.25 L7.9433594,1.5136719 L8.4902344,2.0605469 L8.640625,1.4765625 C8.9404034,1.6025549 9.228462,1.7539782 9.5,1.9335938 L9.5,2.0878906 L9.507812,2.0957031 L10.154297,2.90625 L10.154297,3.1796875 L10.919922,3.4785156 L11.001953,4.5429688 L11.246094,5.9082031 L11.792969,7 L11.984375,6.8261719 C11.924482,7.8777082 11.570733,8.9428548 10.955078,9.810547 C10.955078,9.810547 10.955078,9.8125 10.955078,9.8125 C10.008149,11.116278 8.4257162,11.934464 6.8007812,12.019531 L8.9335938,10.302734 L9.466797,10.029297 L9.732422,9.210938 L10,8.6640625 L9.867188,8.1191406 L8.9335938,7.8457031 L8.6679688,7.5722656 L8.1328125,7.3007812 L7.8671875,7 L7.1425781,7.0195312 C7.0939232,6.97723089 7.03755074,6.94473383 6.9765625,6.9238281 L6.2421875,6.6796875 L4.4375,5.234375 C4.4218922,5.22235516 4.40558775,5.21126813 4.3886719,5.2011719 L4.3886719,4.8710938 L5.2050781,4.5996094 L5.7519531,4.5996094 L6.84375,3.5078125 L7.6621094,2.9609375 L7.1464844,2 L6.546875,2.4140625 L6,2.1699219 L6,1.3242188 L5.4785156,1.1367188 C5.8542308,1.0656803 6.2373536,1.0299536 6.6210938,1.0390625 Z M3.296875,2.0664062 L3.296875,2.6875 L3,3.234375 L3,4.3261719 L3.5683594,5.9648438 L4.0449219,6.2011719 L5.6875,7.515625 C5.73357337,7.55250559 5.78581161,7.58093907 5.8417969,7.5996094 L6.2675781,7.7421875 L6.2675781,7.8457031 L6,8.1191406 L6,8.6640625 L6.2675781,9.484375 L6.8808594,9.757812 L7.0664062,10.029297 L6.3339844,12.03125 C6.3248708,12.030918 6.3157533,12.03163 6.3066406,12.03125 C6.30468748,12.0312386 6.30273432,12.0312386 6.3007812,12.03125 C4.6115183,11.98114 2.9457217,11.071341 2.0039062,9.683594 C2.00199024,9.68031653 2.00003701,9.67706099 1.9980469,9.673828 C1.0061683,8.2846858 0.7285302,6.364907 1.2988281,4.7539062 C1.3001644,4.75066478 1.30146657,4.7474094 1.3027344,4.7441406 C1.6535934,3.6744138 2.3798089,2.727133 3.296875,2.0664062 Z M6.890625,5.0761719 L6.359375,5.9238281 L7.359375,6.5488281 L7.890625,5.7011719 L6.890625,5.0761719 Z" id="Shape"></path>
                </g>
            </g>
        </g>
    </g>
</svg>