<?xml version="1.0" encoding="UTF-8"?>
<svg width="16px" height="10px" viewBox="0 0 16 10" version="1.1" xmlns="http://www.w3.org/2000/svg" xmlns:xlink="http://www.w3.org/1999/xlink">
    <!-- Generator: Sketch 51.1 (57501) - http://www.bohemiancoding.com/sketch -->
    <title>icons8-conference_call</title>
    <desc>Created with Sketch.</desc>
    <defs></defs>
    <g id="Recruit-Setup" stroke="none" stroke-width="1" fill="none" fill-rule="evenodd">
        <g id="Job-View" transform="translate(-849.000000, -183.000000)" fill="#637381" fill-rule="nonzero">
            <g id="icons8-conference_call" transform="translate(849.000000, 183.000000)">
                <path d="M8,0 C6.347656,0 5,1.347656 5,3 C5,3.960938 5.464844,4.808594 6.171875,5.359375 C5.746094,5.527344 5.355469,5.757813 4.996094,6.03125 C4.996094,6.019531 5,6.011719 5,6 C5,4.902344 4.097656,4 3,4 C1.902344,4 1,4.902344 1,6 C1,6.535156 1.21875,7.023438 1.5625,7.382813 C0.636719,7.894531 0,8.871094 0,10 L1,10 C1,8.890625 1.890625,8 3,8 C3.140625,8 3.273438,8.015625 3.402344,8.042969 C3.144531,8.644531 3,9.304688 3,10 L4,10 C4,7.785156 5.785156,6 8,6 C10.214844,6 12,7.785156 12,10 L13,10 C13,9.308594 12.855469,8.648438 12.597656,8.046875 C12.730469,8.019531 12.863281,8 13,8 C14.109375,8 15,8.890625 15,10 L16,10 C16,8.871094 15.363281,7.894531 14.4375,7.382813 C14.78125,7.023438 15,6.535156 15,6 C15,4.902344 14.097656,4 13,4 C11.902344,4 11,4.902344 11,6 C11,6.011719 11.003906,6.019531 11.003906,6.03125 C10.644531,5.757813 10.253906,5.527344 9.828125,5.359375 C10.535156,4.808594 11,3.960938 11,3 C11,1.347656 9.652344,0 8,0 Z M8,1 C9.109375,1 10,1.890625 10,3 C10,4.109375 9.109375,5 8,5 C6.890625,5 6,4.109375 6,3 C6,1.890625 6.890625,1 8,1 Z M3,5 C3.558594,5 4,5.441406 4,6 C4,6.558594 3.558594,7 3,7 C2.441406,7 2,6.558594 2,6 C2,5.441406 2.441406,5 3,5 Z M13,5 C13.558594,5 14,5.441406 14,6 C14,6.558594 13.558594,7 13,7 C12.441406,7 12,6.558594 12,6 C12,5.441406 12.441406,5 13,5 Z" id="Shape"></path>
            </g>
        </g>
    </g>
</svg>