<?xml version="1.0" encoding="UTF-8"?>
<svg width="14px" height="13px" viewBox="0 0 14 13" version="1.1" xmlns="http://www.w3.org/2000/svg" xmlns:xlink="http://www.w3.org/1999/xlink">
    <g id="Recruit-Setup" stroke="none" stroke-width="1" fill="none" fill-rule="evenodd">
        <g id="Job-View" transform="translate(-775.000000, -234.000000)" fill="#505F6E" fill-rule="nonzero">
            <g id="icons8-briefcase" transform="translate(775.000000, 234.000000)">
                <path d="M5.5,0 C4.675781,0 4,0.675781 4,1.5 L4,2 L1.5,2 C0.675781,2 0,2.675781 0,3.5 L0,11.5 C0,12.324219 0.675781,13 1.5,13 L12.5,13 C13.324219,13 14,12.324219 14,11.5 L14,3.5 C14,2.675781 13.324219,2 12.5,2 L10,2 L10,1.5 C10,0.675781 9.324219,0 8.5,0 L5.5,0 Z M5.5,1 L8.5,1 C8.78125,1 9,1.21875 9,1.5 L9,2 L5,2 L5,1.5 C5,1.21875 5.21875,1 5.5,1 Z M1.5,3 L12.5,3 C12.78125,3 13,3.21875 13,3.5 L13,8 L1,8 L1,3.5 C1,3.21875 1.21875,3 1.5,3 Z M6,6 L6,7 L8,7 L8,6 L6,6 Z M1,9 L13,9 L13,11.5 C13,11.78125 12.78125,12 12.5,12 L1.5,12 C1.21875,12 1,11.78125 1,11.5 L1,9 Z" id="Shape"></path>
            </g>
        </g>
    </g>
</svg>