<?xml version="1.0" encoding="UTF-8"?>
<svg width="13px" height="13px" viewBox="0 0 13 13" version="1.1" xmlns="http://www.w3.org/2000/svg" xmlns:xlink="http://www.w3.org/1999/xlink">
    <!-- Generator: Sketch 49.3 (51167) - http://www.bohemiancoding.com/sketch -->
    <title>icons8-calendar</title>
    <desc>Created with Sketch.</desc>
    <defs></defs>
    <g id="Recruit-Setup" stroke="none" stroke-width="1" fill="none" fill-rule="evenodd">
        <g id="Candidate-View---Default" transform="translate(-916.000000, -274.000000)" fill="#505F6E" fill-rule="nonzero">
            <g id="icons8-calendar" transform="translate(916.000000, 274.000000)">
                <path d="M2,0 L2,1 L1.5,1 C0.675781,1 0,1.675781 0,2.5 L0,11.5 C0,12.324219 0.675781,13 1.5,13 L11.5,13 C12.324219,13 13,12.324219 13,11.5 L13,2.5 C13,1.675781 12.324219,1 11.5,1 L11,1 L11,0 L10,0 L10,1 L3,1 L3,0 L2,0 Z M1.5,2 L2,2 L2,3 L3,3 L3,2 L10,2 L10,3 L11,3 L11,2 L11.5,2 C11.78125,2 12,2.21875 12,2.5 L12,4 L1,4 L1,2.5 C1,2.21875 1.21875,2 1.5,2 Z M1,5 L12,5 L12,11.5 C12,11.78125 11.78125,12 11.5,12 L1.5,12 C1.21875,12 1,11.78125 1,11.5 L1,5 Z M4,6 L4,7 L5,7 L5,6 L4,6 Z M6,6 L6,7 L7,7 L7,6 L6,6 Z M8,6 L8,7 L9,7 L9,6 L8,6 Z M10,6 L10,7 L11,7 L11,6 L10,6 Z M2,8 L2,9 L3,9 L3,8 L2,8 Z M4,8 L4,9 L5,9 L5,8 L4,8 Z M6,8 L6,9 L7,9 L7,8 L6,8 Z M8,8 L8,9 L9,9 L9,8 L8,8 Z M10,8 L10,9 L11,9 L11,8 L10,8 Z M2,10 L2,11 L3,11 L3,10 L2,10 Z M4,10 L4,11 L5,11 L5,10 L4,10 Z M6,10 L6,11 L7,11 L7,10 L6,10 Z" id="Shape"></path>
            </g>
        </g>
    </g>
</svg>