<?xml version="1.0" encoding="UTF-8"?>
<svg width="14px" height="13px" viewBox="0 0 14 13" version="1.1" xmlns="http://www.w3.org/2000/svg" xmlns:xlink="http://www.w3.org/1999/xlink">
    <!-- Generator: Sketch 49.3 (51167) - http://www.bohemiancoding.com/sketch -->
    <title>icons8-filled_chat</title>
    <desc>Created with Sketch.</desc>
    <defs></defs>
    <g id="Recruit-Setup" stroke="none" stroke-width="1" fill="none" fill-rule="evenodd">
        <g id="Candidate-View---Default" transform="translate(-865.000000, -274.000000)" fill="#FFFFFF" fill-rule="nonzero">
            <g id="icons8-filled_chat" transform="translate(865.000000, 274.000000)">
                <path d="M1.5,0 C0.675781,0 0,0.675781 0,1.5 L0,6.5 C0,7.324219 0.675781,8 1.5,8 L2.992188,8 L2.992188,10 L5.664063,8 L8.5,8 C9.324219,8 10,7.324219 10,6.5 L10,1.5 C10,0.675781 9.324219,0 8.5,0 L1.5,0 Z M1.5,1 L8.5,1 C8.78125,1 9,1.21875 9,1.5 L9,6.5 C9,6.78125 8.78125,7 8.5,7 L5.328125,7 L3.992188,8 L3.992188,7 L1.5,7 C1.21875,7 1,6.78125 1,6.5 L1,1.5 C1,1.21875 1.21875,1 1.5,1 Z M11,3 L11,6.5 C11,7.878906 9.878906,9 8.5,9 L7.1875,9 L7.183594,9.003906 C6.683594,9.003906 6.246094,9.003906 5.988281,9.003906 L4.242188,10.3125 C4.511719,10.726563 4.972656,11 5.5,11 L8.335938,11 L11.003906,13 L11.003906,11 L12.5,11 C13.328125,11 14,10.328125 14,9.5 L14,4.5 C14,3.671875 13.328125,3 12.5,3 L11,3 Z" id="Shape"></path>
            </g>
        </g>
    </g>
</svg>