<svg xmlns="http://www.w3.org/2000/svg" width="159" height="32" viewBox="0 0 159 32">
    <g fill="none" fill-rule="evenodd">
        <circle cx="15.751" cy="15.751" r="15.751" fill="#3BB273"/>
        <path fill="#1A2848" fill-rule="nonzero" d="M23.386 22.786c-4.023 3.885-10.544 3.885-14.566 0s-4.022-10.184 0-14.07c4.022-3.884 10.543-3.884 14.566 0a2.11 2.11 0 0 1 0 3.06 2.295 2.295 0 0 1-3.167 0c-2.273-2.197-5.96-2.197-8.233 0a5.488 5.488 0 0 0 0 7.951c2.274 2.196 5.96 2.196 8.233 0a2.295 2.295 0 0 1 3.167 0 2.11 2.11 0 0 1 0 3.059z"/>
        <path fill="#3BB273" fill-rule="nonzero" d="M52.838 20.7a.788.788 0 0 1 .726.119c.22.16.329.378.329.657v1.074c0 .345-.103.65-.309.915a1.231 1.231 0 0 1-.806.478c-.902.159-1.857.239-2.865.239-2.255 0-4.012-.637-5.272-1.91-1.26-1.274-1.89-3.124-1.89-5.552 0-2.374.61-4.211 1.83-5.51 1.22-1.3 2.932-1.95 5.133-1.95 1.008 0 1.964.079 2.865.238.332.053.6.212.806.478.206.265.309.57.309.915v1.114c0 .278-.11.5-.329.666a.773.773 0 0 1-.726.13 8.678 8.678 0 0 0-2.427-.358c-1.061 0-1.89.361-2.487 1.084-.597.723-.896 1.787-.896 3.193 0 1.38.325 2.444.975 3.194.65.75 1.52 1.124 2.607 1.124.835 0 1.645-.113 2.427-.338zm12.674 0c.305 0 .57.112.796.338.225.225.338.49.338.796v1.014c0 .306-.113.57-.338.796-.226.226-.49.339-.796.339h-7.68c-.305 0-.57-.113-.796-.339a1.089 1.089 0 0 1-.338-.796V10.592c0-.305.113-.57.338-.796.226-.225.491-.338.796-.338h1.81c.306 0 .571.113.797.338.225.226.338.491.338.796v9.929c0 .119.06.179.179.179h4.556zM77.47 9.458c.305 0 .57.113.796.338.225.226.338.491.338.796v.916c0 .305-.113.57-.338.795-.226.226-.491.339-.796.339h-4.258c-.12 0-.179.053-.179.159v2.05c0 .119.06.178.179.178h3.86c.305 0 .57.113.796.338.225.226.338.491.338.796v.717c0 .305-.113.57-.338.795-.226.226-.491.339-.796.339h-3.86c-.12 0-.179.053-.179.159v2.447c0 .12.06.18.179.18h4.258c.305 0 .57.112.796.337.225.226.338.491.338.796v.915c0 .306-.113.57-.338.796-.226.226-.491.339-.796.339h-7.282c-.305 0-.57-.113-.796-.339a1.089 1.089 0 0 1-.338-.796V10.592c0-.305.112-.57.338-.796.225-.225.49-.338.796-.338h7.282zm14.644 0c.278 0 .5.113.666.338.166.226.209.471.13.737l-3.9 12.375a1.545 1.545 0 0 1-.567.776 1.497 1.497 0 0 1-.906.299h-1.91c-.345 0-.653-.1-.925-.299a1.437 1.437 0 0 1-.547-.776l-3.9-12.375a.796.796 0 0 1 .13-.737.786.786 0 0 1 .666-.338h1.95c.332 0 .627.103.885.309.26.205.422.467.488.786l2.149 9.63c0 .013.013.02.04.02.013 0 .02-.007.02-.02l2.268-9.63c.08-.319.248-.58.507-.786.259-.206.554-.309.885-.309h1.87zm6.844 8.755h2.07c.039 0 .075-.017.109-.05.033-.033.043-.07.03-.11l-1.155-5.193c0-.013-.006-.02-.02-.02-.013 0-.02.007-.02.02l-1.153 5.193c-.014.04-.004.077.03.11.033.033.07.05.109.05zm3.502-7.68l3.9 12.375c.079.265.036.51-.13.736a.786.786 0 0 1-.666.339h-1.95c-.332 0-.627-.103-.886-.309a1.32 1.32 0 0 1-.487-.786l-.338-1.532c-.027-.106-.093-.159-.2-.159h-3.402c-.132 0-.205.053-.219.16l-.338 1.531a1.32 1.32 0 0 1-.487.786 1.384 1.384 0 0 1-.886.309h-1.87a.786.786 0 0 1-.666-.339.796.796 0 0 1-.13-.736l3.9-12.375c.093-.319.275-.577.547-.776.272-.2.58-.299.925-.299h1.91c.332 0 .634.1.906.299.272.199.46.457.567.776zm6.168.278a.651.651 0 0 1-.478-.199.651.651 0 0 1-.199-.477c0-.186.066-.345.2-.478a.651.651 0 0 1 .477-.199h8.873c.186 0 .345.067.478.2a.651.651 0 0 1 .199.477.651.651 0 0 1-.2.477.651.651 0 0 1-.477.2h-3.462c-.119 0-.179.059-.179.178v12.197a.78.78 0 0 1-.228.557.754.754 0 0 1-.568.239.754.754 0 0 1-.567-.24.78.78 0 0 1-.228-.556V10.99c0-.12-.06-.179-.18-.179h-3.461zm13.569 13.172c-.305 0-.57-.113-.796-.339a1.089 1.089 0 0 1-.338-.796V10.592c0-.305.113-.57.338-.796.226-.225.49-.338.796-.338h6.685c.186 0 .345.067.478.2a.629.629 0 0 1 .199.457.662.662 0 0 1-.2.467.636.636 0 0 1-.477.21h-6.048c-.12 0-.18.052-.18.158v4.417c0 .107.06.16.18.16h5.69a.629.629 0 0 1 .637.637.629.629 0 0 1-.637.636h-5.69c-.12 0-.18.06-.18.179v5.511c0 .106.06.16.18.16h6.048c.186 0 .345.07.478.208.132.14.199.296.199.468a.629.629 0 0 1-.2.458.651.651 0 0 1-.477.199h-6.685zm15.16-13.072l-2.426 7.401a.11.11 0 0 0 .02.11c.026.033.06.05.099.05h4.676c.04 0 .07-.017.09-.05.019-.034.029-.07.029-.11l-2.427-7.401c0-.014-.007-.02-.02-.02-.027 0-.04.006-.04.02zm-5.112 13.072a.56.56 0 0 1-.478-.25.543.543 0 0 1-.08-.526l4.537-12.913c.093-.252.249-.454.467-.607.22-.153.461-.229.727-.229.265 0 .507.076.726.229.219.153.375.355.467.607l4.517 12.893a.576.576 0 0 1-.08.547.56.56 0 0 1-.477.249c-.266 0-.5-.077-.707-.23a1.18 1.18 0 0 1-.427-.586l-1.055-3.263c-.04-.106-.12-.16-.239-.16h-5.51c-.107 0-.18.054-.22.16l-1.094 3.303a1.107 1.107 0 0 1-1.074.776zm14.504-.22a.73.73 0 0 1-.537.22.714.714 0 0 1-.537-.23.764.764 0 0 1-.22-.546V10.274c0-.226.077-.418.23-.577a.754.754 0 0 1 .567-.239c.543 0 .948.239 1.213.716l4.358 8.019c0 .013.013.02.04.02.013 0 .02-.007.02-.02l4.357-7.999c.252-.49.663-.736 1.233-.736.226 0 .421.083.587.249a.803.803 0 0 1 .249.587v12.893a.78.78 0 0 1-.229.557.754.754 0 0 1-.567.239.754.754 0 0 1-.567-.24.78.78 0 0 1-.229-.556V12.144c0-.013-.007-.02-.02-.02-.013 0-.02.007-.02.02l-3.72 6.864c-.24.438-.604.657-1.095.657-.49 0-.855-.219-1.094-.657l-3.74-6.864c0-.013-.007-.02-.02-.02-.014 0-.02.007-.02.02v11.063c0 .212-.08.398-.239.557z"/>
    </g>
</svg>
