<?xml version="1.0" encoding="UTF-8"?>
<svg width="11px" height="13px" viewBox="0 0 11 13" version="1.1" xmlns="http://www.w3.org/2000/svg" xmlns:xlink="http://www.w3.org/1999/xlink">
    <!-- Generator: Sketch 52.2 (67145) - http://www.bohemiancoding.com/sketch -->
    <title>icons8-parse_from_clipboard</title>
    <desc>Created with Sketch.</desc>
    <g id="Recruit-Setup" stroke="none" stroke-width="1" fill="none" fill-rule="evenodd">
        <g id="Job-View" transform="translate(-421.000000, -364.000000)" fill="#000000" fill-rule="nonzero">
            <g id="Group" transform="translate(406.000000, 146.000000)">
                <g id="icons8-parse_from_clipboard" transform="translate(15.000000, 218.000000)">
                    <path d="M5.5,0 C4.851563,0 4.300781,0.421875 4.09375,1 L1.5,1 C0.675781,1 0,1.675781 0,2.5 L0,11.5 C0,12.324219 0.675781,13 1.5,13 L9.5,13 C10.324219,13 11,12.324219 11,11.5 L11,2.5 C11,1.675781 10.324219,1 9.5,1 L6.90625,1 C6.699219,0.421875 6.148438,0 5.5,0 Z M5.5,1 C5.78125,1 6,1.21875 6,1.5 L6,2 L7,2 L7,3 L4,3 L4,2 L5,2 L5,1.5 C5,1.21875 5.21875,1 5.5,1 Z M1.5,2 L3,2 L3,4 L8,4 L8,2 L9.5,2 C9.78125,2 10,2.21875 10,2.5 L10,11.5 C10,11.78125 9.78125,12 9.5,12 L1.5,12 C1.21875,12 1,11.78125 1,11.5 L1,2.5 C1,2.21875 1.21875,2 1.5,2 Z M5.5,5 C4.675781,5 4,5.675781 4,6.5 C4,6.980469 4.234375,7.402344 4.585938,7.679688 C3.660156,8.046875 3,8.949219 3,10 L4,10 C4,9.164063 4.664063,8.5 5.5,8.5 C6.335938,8.5 7,9.164063 7,10 L8,10 C8,8.949219 7.339844,8.046875 6.414063,7.679688 C6.765625,7.402344 7,6.980469 7,6.5 C7,5.675781 6.324219,5 5.5,5 Z M5.5,6 C5.78125,6 6,6.21875 6,6.5 C6,6.78125 5.78125,7 5.5,7 C5.21875,7 5,6.78125 5,6.5 C5,6.21875 5.21875,6 5.5,6 Z" id="Shape"></path>
                </g>
            </g>
        </g>
    </g>
</svg>