<?xml version="1.0" encoding="UTF-8"?>
<svg width="13px" height="13px" viewBox="0 0 13 13" version="1.1" xmlns="http://www.w3.org/2000/svg" xmlns:xlink="http://www.w3.org/1999/xlink">
    <!-- Generator: Sketch 52.2 (67145) - http://www.bohemiancoding.com/sketch -->
    <title>icons8-clock</title>
    <desc>Created with Sketch.</desc>
    <g id="Recruit-Setup" stroke="none" stroke-width="1" fill="none" fill-rule="evenodd">
        <g id="Job-View" transform="translate(-729.000000, -182.000000)" fill="#637381" fill-rule="nonzero">
            <g id="icons8-clock" transform="translate(729.000000, 182.000000)">
                <path d="M6.5,0 C2.917969,0 0,2.917969 0,6.5 C0,10.082031 2.917969,13 6.5,13 C10.082031,13 13,10.082031 13,6.5 C13,2.917969 10.082031,0 6.5,0 Z M6.5,1 C9.542969,1 12,3.457031 12,6.5 C12,9.542969 9.542969,12 6.5,12 C3.457031,12 1,9.542969 1,6.5 C1,3.457031 3.457031,1 6.5,1 Z M6,2 L6,7 L9,7 L9,6 L7,6 L7,2 L6,2 Z" id="Shape"></path>
            </g>
        </g>
    </g>
</svg>