<?xml version="1.0" encoding="UTF-8"?>
<svg width="14px" height="13px" viewBox="0 0 14 13" version="1.1" xmlns="http://www.w3.org/2000/svg" xmlns:xlink="http://www.w3.org/1999/xlink">
    <!-- Generator: Sketch 52.2 (67145) - http://www.bohemiancoding.com/sketch -->
    <title>icons8-company</title>
    <desc>Created with Sketch.</desc>
    <g id="Recruit-Setup" stroke="none" stroke-width="1" fill="none" fill-rule="evenodd">
        <g id="Job-View" transform="translate(-419.000000, -299.000000)" fill="#000000" fill-rule="nonzero">
            <g id="Group" transform="translate(406.000000, 146.000000)">
                <g id="icons8-company" transform="translate(13.000000, 153.000000)">
                    <path d="M1.5,0 C0.6774686,0 0,0.6774686 0,1.5 L0,2.5 L0,12.5 L0,13 L14,13 L14,12.5 L14,12 L14,4.75 C14,4.3414686 13.658531,4 13.25,4 L10,4 L10,2.5 L10,1.5 C10,0.6774686 9.322531,0 8.5,0 L7.5,0 L2.5,0 L1.5,0 Z M1.5,1 L2.5,1 L7.5,1 L8.5,1 C8.7814686,1 9,1.2185314 9,1.5 L9,2.5 L9,12 L6,12 L6,10 L4,10 L4,12 L1,12 L1,2.5 L1,1.5 C1,1.2185314 1.2185314,1 1.5,1 Z M2,2 L2,3 L3,3 L3,2 L2,2 Z M4,2 L4,3 L6,3 L6,2 L4,2 Z M7,2 L7,3 L8,3 L8,2 L7,2 Z M2,4 L2,5 L3,5 L3,4 L2,4 Z M4,4 L4,5 L6,5 L6,4 L4,4 Z M7,4 L7,5 L8,5 L8,4 L7,4 Z M10,5 L13,5 L13,12 L10,12 L10,5 Z M2,6 L2,7 L3,7 L3,6 L2,6 Z M4,6 L4,7 L6,7 L6,6 L4,6 Z M7,6 L7,7 L8,7 L8,6 L7,6 Z M11,6 L11,7 L12,7 L12,6 L11,6 Z M2,8 L2,9 L3,9 L3,8 L2,8 Z M4,8 L4,9 L6,9 L6,8 L4,8 Z M7,8 L7,9 L8,9 L8,8 L7,8 Z M11,8 L11,9 L12,9 L12,8 L11,8 Z M2,10 L2,11 L3,11 L3,10 L2,10 Z M7,10 L7,11 L8,11 L8,10 L7,10 Z M11,10 L11,11 L12,11 L12,10 L11,10 Z" id="Shape"></path>
                </g>
            </g>
        </g>
    </g>
</svg>