<?xml version="1.0" encoding="UTF-8"?>
<svg width="15px" height="12px" viewBox="0 0 60 48" version="1.1" xmlns="http://www.w3.org/2000/svg" xmlns:xlink="http://www.w3.org/1999/xlink">
    <!-- Generator: Sketch 51.1 (57501) - http://www.bohemiancoding.com/sketch -->
    <title>icons8-upload_to_cloud</title>
    <desc>Created with Sketch.</desc>
    <defs></defs>
    <g id="Recruit-Setup" stroke="none" stroke-width="1" fill="none" fill-rule="evenodd">
        <g id="Default-Screen" transform="translate(-869.000000, -230.000000)" fill="#131E3C" fill-rule="nonzero">
            <g id="Group-2" transform="translate(750.000000, 116.000000)">
                <g id="icons8-upload_to_cloud" transform="translate(119.000000, 114.000000)">
                    <path d="M34.8,0.6375 C28.5421872,0.6375 23.2453128,4.3828128 20.7,9.675 C19.3453128,8.7421872 17.775,8.0625 16.0125,8.0625 C11.5406256,8.0625 7.9734372,11.6015628 7.725,16.0125 C3.2531256,17.625 0,21.7968756 0,26.8125 C0,33.20625 5.19375,38.4 11.5875,38.4 L21.6,38.4 C22.03125,38.4046872 22.4343756,38.1796872 22.6546872,37.8046872 C22.8703128,37.4296872 22.8703128,36.9703128 22.6546872,36.5953128 C22.4343756,36.2203128 22.03125,35.9953128 21.6,36 L11.5875,36 C6.4875,36 2.4,31.9078128 2.4,26.8125 C2.4,22.5703128 5.2593756,18.9984372 9.15,17.925 C9.6796872,17.7703128 10.0359372,17.2734372 10.0125,16.725 C10.0078128,16.55625 10.0125,16.4718756 10.0125,16.4625 C10.0125,13.1296872 12.6796872,10.4625 16.0125,10.4625 C17.68125,10.4625 19.2,11.1328128 20.2875,12.225 C20.5734372,12.5015628 20.98125,12.6234372 21.3703128,12.5390628 C21.7640628,12.4546872 22.0875,12.1828128 22.2375,11.8125 C24.1265628,6.7125 29.0296872,3.0375 34.8,3.0375 C42.20625,3.0375 48.1875,9.0234372 48.1875,16.425 C48.1875,16.9734372 48.1453128,17.5125 48.075,18.075 C48.0328128,18.4125 48.1359372,18.75 48.35625,19.0078128 C48.5765628,19.2656256 48.9,19.4156256 49.2375,19.425 L49.3125,19.425 C53.9015628,19.425 57.6,23.1234372 57.6,27.7125 C57.6,32.3015628 53.9015628,36 49.3125,36 L38.4,36 C37.96875,35.9953128 37.5656256,36.2203128 37.3453128,36.5953128 C37.1296872,36.9703128 37.1296872,37.4296872 37.3453128,37.8046872 C37.5656256,38.1796872 37.96875,38.4046872 38.4,38.4 L49.3125,38.4 C55.2,38.4 60,33.6 60,27.7125 C60,22.2515628 55.8093756,17.9109372 50.5125,17.2875 C50.53125,16.9968756 50.5875,16.725 50.5875,16.425 C50.5875,7.725 43.5,0.6375 34.8,0.6375 Z M30,21.1125 L29.1375,21.9375 L23.1375,27.9375 C22.6593756,28.4156256 22.6593756,29.1843756 23.1375,29.6625 C23.6156256,30.1406256 24.3843756,30.1406256 24.8625,29.6625 L28.8,25.725 L28.8,46.8 C28.7953128,47.23125 29.0203128,47.6343756 29.3953128,47.8546872 C29.7703128,48.0703128 30.2296872,48.0703128 30.6046872,47.8546872 C30.9796872,47.6343756 31.2046872,47.23125 31.2,46.8 L31.2,25.725 L35.1375,29.6625 C35.6156256,30.1406256 36.3843756,30.1406256 36.8625,29.6625 C37.3406256,29.1843756 37.3406256,28.4156256 36.8625,27.9375 L30.8625,21.9375 L30,21.1125 Z" id="Shape"></path>
                </g>
            </g>
        </g>
    </g>
</svg>