<?xml version="1.0" encoding="UTF-8"?>
<svg width="5px" height="14px" viewBox="0 0 5 14" version="1.1" xmlns="http://www.w3.org/2000/svg" xmlns:xlink="http://www.w3.org/1999/xlink">
    <!-- Generator: Sketch 49.3 (51167) - http://www.bohemiancoding.com/sketch -->
    <title>Group 2</title>
    <desc>Created with Sketch.</desc>
    <defs></defs>
    <g id="Recruit-Setup" stroke="none" stroke-width="1" fill="none" fill-rule="evenodd">
        <g id="Job-View-Default" transform="translate(-279.000000, -223.000000)" fill="#505F6E" fill-rule="nonzero">
            <g id="Group-2" transform="translate(279.000000, 223.000000)">
                <g id="icons8-menu_2">
                    <path d="M1,0 C0.449219,0 0,0.449219 0,1 C0,1.550781 0.449219,2 1,2 C1.550781,2 2,1.550781 2,1 C2,0.449219 1.550781,0 1,0 Z M1,4 C0.449219,4 0,4.449219 0,5 C0,5.550781 0.449219,6 1,6 C1.550781,6 2,5.550781 2,5 C2,4.449219 1.550781,4 1,4 Z M1,8 C0.449219,8 0,8.449219 0,9 C0,9.550781 0.449219,10 1,10 C1.550781,10 2,9.550781 2,9 C2,8.449219 1.550781,8 1,8 Z M1,12 C0.449219,12 0,12.449219 0,13 C0,13.550781 0.449219,14 1,14 C1.550781,14 2,13.550781 2,13 C2,12.449219 1.550781,12 1,12 Z" id="Shape"></path>
                </g>
                <g id="icons8-menu_2" transform="translate(3.000000, 0.000000)">
                    <path d="M1,0 C0.449219,0 0,0.449219 0,1 C0,1.550781 0.449219,2 1,2 C1.550781,2 2,1.550781 2,1 C2,0.449219 1.550781,0 1,0 Z M1,4 C0.449219,4 0,4.449219 0,5 C0,5.550781 0.449219,6 1,6 C1.550781,6 2,5.550781 2,5 C2,4.449219 1.550781,4 1,4 Z M1,8 C0.449219,8 0,8.449219 0,9 C0,9.550781 0.449219,10 1,10 C1.550781,10 2,9.550781 2,9 C2,8.449219 1.550781,8 1,8 Z M1,12 C0.449219,12 0,12.449219 0,13 C0,13.550781 0.449219,14 1,14 C1.550781,14 2,13.550781 2,13 C2,12.449219 1.550781,12 1,12 Z" id="Shape"></path>
                </g>
            </g>
        </g>
    </g>
</svg>