<svg width="15px" height="13px" viewBox="0 0 15 13" version="1.1" xmlns="http://www.w3.org/2000/svg" xmlns:xlink="http://www.w3.org/1999/xlink">
    <g id="Recruit-Setup" stroke="none" stroke-width="1" fill="none" fill-rule="evenodd">
        <g id="Candidate-View---Default" transform="translate(-410.000000, -139.000000)" fill="#505F6E" fill-rule="nonzero">
            <g id="icons8-send" transform="translate(410.000000, 139.000000)">
                <path d="M1.5,0 C0.675781,0 0,0.675781 0,1.5 L0,9.5 C0,10.324219 0.675781,11 1.5,11 L7,11 L7,10 L1.5,10 C1.21875,10 1,9.78125 1,9.5 L1,1.953125 L7,6.109375 L13,1.953125 L13,7 L14,7 L14,1.5 C14,0.675781 13.324219,0 12.5,0 L1.5,0 Z M1.5,1 L12.5,1 C12.535156,1 12.5625,1.011719 12.59375,1.019531 L7,4.890625 L1.40625,1.019531 C1.4375,1.011719 1.464844,1 1.5,1 Z M12,8 L12,10 L8,10 L8,11 L12,11 L12,13 L14.5,10.5 L12,8 Z" id="Shape"></path>
            </g>
        </g>
    </g>
</svg>