<?xml version="1.0" encoding="UTF-8"?>
<svg width="6px" height="17px" viewBox="0 0 6 17" version="1.1" xmlns="http://www.w3.org/2000/svg" xmlns:xlink="http://www.w3.org/1999/xlink">
    <!-- Generator: Sketch 51.1 (57501) - http://www.bohemiancoding.com/sketch -->
    <title>icons8-high_priority</title>
    <desc>Created with Sketch.</desc>
    <defs></defs>
    <g id="Recruit-Setup" stroke="none" stroke-width="1" fill="none" fill-rule="evenodd">
        <g id="Job-View---Default" transform="translate(-911.000000, -331.000000)" fill="#FEBA8B" fill-rule="nonzero">
            <g id="icons8-high_priority" transform="translate(911.000000, 331.000000)">
                <path d="M4.39388092,16.4355476 C3.96777308,16.8561205 3.39778717,17 2.83333333,17 C2.26888092,17 1.69889358,16.8561205 1.27278717,16.4355476 C0.85221425,16.0094398 0.708333333,15.5833333 0.708333333,14.875 C0.708333333,14.3105476 0.85221425,13.7405602 1.27278717,13.3144538 C1.69889358,12.8938809 2.26888092,12.75 2.83333333,12.75 C3.39778717,12.75 3.96777308,12.8938809 4.39388092,13.3144538 C4.81445383,13.7405602 4.95833333,14.3105476 4.95833333,14.875 C4.95833333,15.4394538 4.81445383,16.0094398 4.39388092,16.4355476 Z M3.96777308,9.91666667 L1.84277308,9.91666667 C1.56054758,6.65722692 0.564453833,3.11556025 0.564453833,2.40722692 C0.564453833,1.69889358 0.85221425,1.13443975 1.27278717,0.708333333 C1.56054758,0.282226917 2.125,0 2.83333333,0 C3.54166667,0 4.1061205,0.282226917 4.53222692,0.708333333 C4.95833333,1.13443975 5.24056025,1.69889358 5.24056025,2.40722692 C5.10221425,3.11556025 4.25,6.65722692 3.96777308,9.91666667 Z" id="Shape"></path>
            </g>
        </g>
    </g>
</svg>