<svg width="14px" height="13px" viewBox="0 0 14 13" version="1.1" xmlns="http://www.w3.org/2000/svg" xmlns:xlink="http://www.w3.org/1999/xlink">
    <g id="Recruit-Setup" stroke="none" stroke-width="1" fill="none" fill-rule="evenodd">
        <g id="Job-View" transform="translate(-274.000000, -113.000000)" fill="#637381" fill-rule="nonzero">
            <g id="icons8-export" transform="translate(274.000000, 113.000000)">
                <path d="M1.5,0 C0.6774686,0 0,0.6774686 0,1.5 L0,11.5 C0,12.322531 0.6774686,13 1.5,13 L11.5,13 C12.322531,13 13,12.322531 13,11.5 L13,10 L12,10 L12,11.5 C12,11.781469 11.781469,12 11.5,12 L1.5,12 C1.2185314,12 1,11.781469 1,11.5 L1,1.5 C1,1.2185314 1.2185314,1 1.5,1 L11.5,1 C11.781469,1 12,1.2185314 12,1.5 L12,3 L13,3 L13,1.5 C13,0.6774686 12.322531,0 11.5,0 L1.5,0 Z M9.728516,3.0214844 L9.021484,3.7285156 L11.292969,6 L4,6 L4,7 L11.292969,7 L9.021484,9.271484 L9.728516,9.978516 L13.207031,6.5 L9.728516,3.0214844 Z" id="Shape"></path>
            </g>
        </g>
    </g>
</svg>