<?xml version="1.0" encoding="UTF-8"?>
<svg width="13px" height="13px" viewBox="0 0 13 13" version="1.1" xmlns="http://www.w3.org/2000/svg" xmlns:xlink="http://www.w3.org/1999/xlink">
    <!-- Generator: Sketch 49.3 (51167) - http://www.bohemiancoding.com/sketch -->
    <title>icons8-facebook</title>
    <desc>Created with Sketch.</desc>
    <defs></defs>
    <g id="Recruit-Setup" stroke="none" stroke-width="1" fill="none" fill-rule="evenodd">
        <g id="Candidate-View---Default" transform="translate(-757.000000, -136.000000)" fill="#505F6E" fill-rule="nonzero">
            <g id="Group-3" transform="translate(757.000000, 136.000000)">
                <g id="icons8-facebook">
                    <path d="M2.5,0 C1.1250151,0 0,1.1250151 0,2.5 L0,10.5 C0,11.874985 1.1250151,13 2.5,13 L10.5,13 C11.874985,13 13,11.874985 13,10.5 L13,2.5 C13,1.1250151 11.874985,0 10.5,0 L2.5,0 Z M2.5,1 L10.5,1 C11.335015,1 12,1.6649849 12,2.5 L12,10.5 C12,11.335015 11.335015,12 10.5,12 L8.9042969,12 L8.9042969,7.9667969 L10.300781,7.9667969 L10.509766,6.3574219 L8.9042969,6.3574219 L8.9042969,5.3320312 C8.9042969,4.8660312 9.034031,4.5488281 9.707031,4.5488281 L10.566406,4.5488281 L10.566406,3.109375 C10.417406,3.089375 9.907453,3.046875 9.314453,3.046875 C8.0764531,3.046875 7.2304688,3.795875 7.2304688,5.171875 L7.2304688,6.3574219 L6,6.3535156 L6,7.9628906 L7.2304688,7.9667969 L7.2304688,12 L2.5,12 C1.6649849,12 1,11.335015 1,10.5 L1,2.5 C1,1.6649849 1.6649849,1 2.5,1 Z" id="Shape"></path>
                </g>
            </g>
        </g>
    </g>
</svg>