<?xml version="1.0" encoding="UTF-8"?>
<svg width="30px" height="30px" viewBox="0 0 30 30" version="1.1" xmlns="http://www.w3.org/2000/svg" xmlns:xlink="http://www.w3.org/1999/xlink">
    <!-- Generator: Sketch 52.2 (67145) - http://www.bohemiancoding.com/sketch -->
    <title>Group 2</title>
    <desc>Created with Sketch.</desc>
    <g id="Recruit-Setup" stroke="none" stroke-width="1" fill="none" fill-rule="evenodd">
        <g id="Candidate-View---Details" transform="translate(-306.000000, -287.000000)" fill="#212B35">
            <g id="Group-2" transform="translate(306.000000, 287.000000)">
                <g id="Group" fill-rule="nonzero">
                    <path d="M29.2691801,6.85758509 L23.2459055,0.8869799 C23.0201793,0.661253766 22.7116869,0.53334229 22.3956704,0.53334229 L20.0330702,0.53334229 L2.63277368,0.53334229 C1.3085137,0.53334229 0.247600869,1.60177932 0.247600869,2.9185151 L0.247600869,27.3584496 C0.247600869,28.6751854 1.3160379,29.7436224 2.63277368,29.7436224 L27.2225965,29.7436224 C28.5468565,29.7436224 29.6002451,28.6902338 29.6077693,27.3885465 L29.6303419,7.7078202 C29.6228177,7.39932781 29.4949062,7.09083543 29.2691801,6.85758509 Z M22.2301379,2.12847363 L27.8019602,7.69277179 C28.0352106,7.92602213 27.8696781,8.31728076 27.5461373,8.31728076 L23.080373,8.31728076 C22.2677589,8.31728076 21.6056289,7.65515077 21.6056289,6.84253668 L21.6056289,2.38429659 C21.6056289,2.05323159 22.0044117,1.8952233 22.2301379,2.12847363 Z M28.1555978,11.7507838 L28.1480736,26.9370942 C28.1480736,27.6443694 27.5611857,28.2237331 26.8463862,28.2237331 L3.01650811,28.2237331 C2.30170869,28.2237331 1.71482074,27.6443694 1.71482074,26.9370942 L1.71482074,3.26462851 C1.71482074,2.55735329 2.30170869,1.97798955 3.01650811,1.97798955 L18.9270121,1.97798955 C19.6418115,1.97798955 20.2286995,2.55735329 20.2286995,3.26462851 L20.2286995,7.07578702 C20.2286995,8.50538587 21.3347575,9.64154074 22.7944532,9.64154074 L26.8539105,9.64154074 C27.5687099,9.64154074 28.1555978,10.2209045 28.1555978,10.9281797 L28.1555978,11.7507838 Z" id="Shape-Copy-2"></path>
                </g>
                <rect id="Rectangle" x="8" y="14" width="21" height="10"></rect>
            </g>
        </g>
    </g>
</svg>