<?xml version="1.0" encoding="UTF-8"?>
<svg width="14px" height="16px" viewBox="0 0 14 16" version="1.1" xmlns="http://www.w3.org/2000/svg" xmlns:xlink="http://www.w3.org/1999/xlink">
    <g id="Symbols" stroke="none" stroke-width="1" fill="none" fill-rule="evenodd" opacity="0.5">
        <g id="Menu" transform="translate(-261.000000, -42.000000)" fill="#FFFFFF">
            <g id="icons8-gender_neutral_user" transform="translate(261.000000, 42.000000)">
                <path d="M6.76923077,0 C4.73798092,0 3.07692308,1.29326954 3.07692308,3.69230769 C3.07692308,5.29807692 3.82451938,6.96153846 4.92307692,7.88461538 L4.92307692,8.73076923 C4.92307692,9.10096185 4.67307692,9.41826954 4.36538462,9.48076923 C1.96634646,10.2187502 0,11.8076923 0,12.7307692 L0,13.8461538 C0,15.0144234 3.01442338,16 6.76923077,16 C10.5240388,16 13.5384615,15.0144234 13.5384615,13.8461538 L13.5384615,12.7307692 C13.5384615,11.8701926 11.6346154,10.2187502 9.17307692,9.48076923 C8.86538462,9.41826954 8.61538462,9.03846154 8.61538462,8.73076923 L8.61538462,7.88461538 C9.71394215,6.96153846 10.4615385,5.29807692 10.4615385,3.69230769 C10.4615385,1.29326954 8.80048062,0 6.76923077,0 Z" id="Path"></path>
            </g>
        </g>
    </g>
</svg>