<?xml version="1.0" encoding="UTF-8"?>
<svg width="13px" height="13px" viewBox="0 0 13 13" version="1.1" xmlns="http://www.w3.org/2000/svg" xmlns:xlink="http://www.w3.org/1999/xlink">
    <!-- Generator: Sketch 49.3 (51167) - http://www.bohemiancoding.com/sketch -->
    <title>icons8-github</title>
    <desc>Created with Sketch.</desc>
    <defs></defs>
    <g id="Recruit-Setup" stroke="none" stroke-width="1" fill="none" fill-rule="evenodd">
        <g id="Candidate-View---Default" transform="translate(-822.000000, -136.000000)" fill="#505F6E" fill-rule="nonzero">
            <g id="Group-3" transform="translate(757.000000, 136.000000)">
                <g id="icons8-github" transform="translate(65.000000, 0.000000)">
                    <path d="M6.5,0 C2.910156,0 0,2.90625 0,6.488281 C0,9.355469 1.863281,11.789063 4.445313,12.648438 C4.769531,12.707031 5,12.375 5,12.125 C5,11.972656 5.003906,11.789063 5,11.25 C3.191406,11.640625 2.625,10.375 2.625,10.375 C2.328125,9.625 1.96875,9.410156 1.96875,9.410156 C1.378906,9.007813 2.011719,9.019531 2.011719,9.019531 C2.664063,9.0625 3,9.625 3,9.625 C3.5,10.5 4.628906,10.414063 5,10.25 C5,9.851563 5.042969,9.5625 5.152344,9.378906 C3.109375,9.019531 1.996094,7.839844 2,6.207031 C2.003906,5.242188 2.335938,4.492188 2.875,3.9375 C2.640625,3.640625 2.480469,2.625 2.960938,2 C4.167969,2 4.886719,2.871094 4.886719,2.871094 C4.886719,2.871094 5.453125,2.625 6.496094,2.625 C7.542969,2.625 8.105469,2.859375 8.105469,2.859375 C8.105469,2.859375 8.828125,2 10.035156,2 C10.515625,2.625 10.355469,3.640625 10.167969,3.917969 C10.683594,4.460938 11,5.210938 11,6.207031 C11,7.839844 9.890625,9.019531 7.851563,9.375 C7.980469,9.570313 8,9.84375 8,10.25 C8,11.117188 8,11.910156 8,12.125 C8,12.375 8.226563,12.710938 8.558594,12.648438 C11.140625,11.785156 13,9.355469 13,6.488281 C13,2.90625 10.089844,0 6.5,0 Z" id="Shape"></path>
                </g>
            </g>
        </g>
    </g>
</svg>