<svg width="20px" height="20px" viewBox="0 0 20 20" version="1.1" xmlns="http://www.w3.org/2000/svg" xmlns:xlink="http://www.w3.org/1999/xlink">
    <g id="Recruit-Setup" stroke="none" stroke-width="1" fill="none" fill-rule="evenodd">
        <g id="Scorecard---Default" transform="translate(-1165.000000, -526.000000)" fill="#65B7A9" fill-rule="nonzero">
            <g id="icons8-happy" transform="translate(1165.000000, 526.000000)">
                <path d="M10,0 C4.487023,0 0,4.487023 0,10 C0,15.5129767 4.487023,20 10,20 C15.5129767,20 20,15.5129767 20,10 C20,4.487023 15.5129767,0 10,0 Z M10,1.66666667 C14.6122433,1.66666667 18.3333333,5.38775658 18.3333333,10 C18.3333333,14.6122433 14.6122433,18.3333333 10,18.3333333 C5.38775658,18.3333333 1.66666667,14.6122433 1.66666667,10 C1.66666667,5.38775658 5.38775658,1.66666667 10,1.66666667 Z M6.25,8.33333333 C5.55964406,8.33333333 5,8.8929774 5,9.58333333 C5,10.2736893 5.55964406,10.8333333 6.25,10.8333333 C6.94035594,10.8333333 7.5,10.2736893 7.5,9.58333333 C7.5,8.8929774 6.94035594,8.33333333 6.25,8.33333333 Z M13.75,8.33333333 C13.0596441,8.33333333 12.5,8.8929774 12.5,9.58333333 C12.5,10.2736893 13.0596441,10.8333333 13.75,10.8333333 C14.4403559,10.8333333 15,10.2736893 15,9.58333333 C15,8.8929774 14.4403559,8.33333333 13.75,8.33333333 Z M7.4951175,13.3268233 C7.14089758,13.3467012 6.83809009,13.5886467 6.74052826,13.9297457 C6.64296644,14.2708448 6.77203904,14.6363174 7.06217417,14.840495 C7.73243,15.3275992 8.73611083,15.8333333 10,15.8333333 C11.2638892,15.8333333 12.2679567,15.3280267 12.9378258,14.840495 C13.1786663,14.6652152 13.3076744,14.3747427 13.2762363,14.0785354 C13.2447982,13.7823281 13.0576922,13.5254065 12.7854249,13.4045857 C12.5131577,13.2837649 12.197111,13.3174083 11.95638,13.4928383 C11.4812492,13.83864 10.8194442,14.1666667 10,14.1666667 C9.18055583,14.1666667 8.51840333,13.8390675 8.0419925,13.4928383 C7.90763394,13.3920171 7.74594478,13.3341496 7.578125,13.3268233 C7.55047301,13.3254446 7.52276949,13.3254446 7.4951175,13.3268233 Z" id="Shape"></path>
            </g>
        </g>
    </g>
</svg>