<?xml version="1.0" encoding="UTF-8"?>
<svg width="67px" height="26px" viewBox="0 0 67 26" version="1.1" xmlns="http://www.w3.org/2000/svg" xmlns:xlink="http://www.w3.org/1999/xlink">
    <!-- Generator: Sketch 52.2 (67145) - http://www.bohemiancoding.com/sketch -->
    <title>Group 4</title>
    <desc>Created with Sketch.</desc>
    <g id="Symbols" stroke="none" stroke-width="1" fill="none" fill-rule="evenodd">
        <g id="Left-Menu" transform="translate(-15.000000, -14.000000)">
            <g id="Group-4" transform="translate(15.000000, 14.000000)">
                <path d="M0,25.2551163 L0,0.439644192 L4.65697181,0.439644192 L4.65697181,10.2420814 L4.95006793,10.2420814 C5.78050696,8.19040846 7.73448115,6.95289147 10.3723463,6.95289147 C14.2314453,6.95289147 16.527365,9.37907609 16.527365,13.6941024 L16.527365,25.2551163 L11.7889776,25.2551163 L11.7889776,14.8176376 C11.7889776,12.3263205 10.6328762,11.0399541 8.48350459,11.0399541 C6.10616933,11.0399541 4.7383874,12.6194166 4.7383874,14.9479025 L4.7383874,25.2551163 L0,25.2551163 Z M20.0401767,25.2551163 L20.0401767,7.29483696 L24.7785641,7.29483696 L24.7785641,25.2551163 L20.0401767,25.2551163 Z M22.417512,4.78723675 C20.7077846,4.78723675 19.6168157,3.79396654 19.6168157,2.39361838 C19.6168157,0.976987092 20.7077846,0 22.417512,0 C24.1109563,0 25.2182083,0.976987092 25.2182083,2.39361838 C25.2182083,3.79396654 24.1109563,4.78723675 22.417512,4.78723675 Z M28.454207,25.2551163 L28.454207,7.29483696 L33.0460464,7.29483696 L33.0460464,10.1606658 L33.3391425,10.1606658 C33.8113529,8.36952276 35.6676284,7.00174083 37.947265,7.00174083 C38.5985897,7.00174083 39.3964625,7.08315642 39.8035404,7.22970448 L39.8035404,11.5447308 C39.4290287,11.3981827 38.3217767,11.2516347 37.5564701,11.2516347 C34.9674543,11.2516347 33.1925944,12.7822478 33.1925944,15.3061311 L33.1925944,25.2551163 L28.454207,25.2551163 Z M49.210841,10.5351775 C47.01262,10.5351775 45.4657238,12.0657906 45.3028926,14.3942765 L52.9559582,14.3942765 C52.8582595,12.0169412 51.4253451,10.5351775 49.210841,10.5351775 Z M53.0536569,20.1422172 L57.4663819,20.1422172 C56.7499247,23.5291058 53.6561322,25.6459112 49.2596903,25.6459112 C43.7885626,25.6459112 40.5645052,22.1938901 40.5645052,16.3645338 C40.5645052,10.5188944 43.8536951,6.90404212 49.1945579,6.90404212 C54.4865713,6.90404212 57.61293,10.2746476 57.61293,15.973739 L57.61293,17.4229365 L45.2866095,17.4229365 L45.2866095,17.6671833 C45.351742,20.3376146 46.9149213,21.9984927 49.3899553,21.9984927 C51.2625139,21.9984927 52.5488802,21.3308849 53.0536569,20.1422172 Z" id="hire." fill="#1A2848"></path>
                <path d="M63.9255902,25.9980681 C62.1832965,25.9980681 61.0434783,24.8094005 61.0434783,23.1648055 C61.0434783,21.5202106 62.1832965,20.3478261 63.9255902,20.3478261 C65.6841669,20.3478261 66.8077021,21.5202106 66.8077021,23.1648055 C66.8077021,24.8094005 65.6841669,25.9980681 63.9255902,25.9980681 Z" id="Path" fill="#FF2D55"></path>
            </g>
        </g>
    </g>
</svg>