<svg xmlns="http://www.w3.org/2000/svg" width="21" height="20" viewBox="0 0 21 20">
    <path fill="#212B35" fill-rule="nonzero" d="M15 0a2 2 0 0 0-2 2 2 2 0 0 0 1 1.729V5h-3V3l.002-1.445a1 1 0 0 0-.498-.866A5.016 5.016 0 0 0 7.379.05a4.94 4.94 0 0 0-2.914 1.416 4.272 4.272 0 0 0-.633.82l-.002.004a1 1 0 0 0-.16.211 4.964 4.964 0 0 0-.58 3.354C1.27 6.88 0 8.767 0 11c0 1.82.886 3.388 2.166 4.484C2.641 18.032 4.817 20 7.5 20a5.488 5.488 0 0 0 3.057-.93 1 1 0 0 0 .443-.83V15h3v1.27a2 2 0 1 0 2 .001V14a1 1 0 0 0-1-1h-4v-2h6.271A2 2 0 0 0 19 12a2 2 0 1 0-1.73-3H11V7h4a1 1 0 0 0 1-1V3.73A2 2 0 0 0 15 0zM7.977 2.025c.346.034.686.165 1.023.29v3.517a1 1 0 0 0 0 .326v1.737a1 1 0 0 0-.006.107 1.992 1.992 0 0 1-1.33 1.885 1 1 0 0 0 .666 1.886c.236-.083.457-.194.67-.318v2.377a1 1 0 0 0 0 .326v3.387c-.466.23-.942.455-1.5.455-1.804 0-3.25-1.348-3.455-3.096a1 1 0 0 0-.4-.69C2.648 13.483 2 12.328 2 11c0-1.392.715-2.591 1.79-3.305.136.214.288.419.458.612a1 1 0 1 0 1.5-1.323 2.99 2.99 0 0 1-.535-.89A1 1 0 0 0 5.186 6a3.025 3.025 0 0 1 .002-2.041c.016-.045.04-.087.058-.13.043-.1.087-.2.14-.296.131-.233.293-.455.493-.654a2.947 2.947 0 0 1 1.748-.852c.117-.013.234-.013.35-.002z"/>
</svg>
