<svg xmlns="http://www.w3.org/2000/svg" width="22" height="15" viewBox="0 0 22 15">
    <path fill="#212B35" fill-rule="nonzero" d="M2 0C.897 0 0 .897 0 2v11c0 1.103.897 2 2 2h18c1.103 0 2-.897 2-2V2c0-1.103-.897-2-2-2H2zm5 5h1.5A1.5 1.5 0 0 1 10 6.5c0 .648-.412 1.194-.988 1.404L10.059 10H8.94L8 8.117V10H7V5zm4 0h3v1h-2v1h1.6v1H12v1h2v1h-3V5zm6 0a2 2 0 0 1 2 2h-1c0-.551-.449-1-1-1-.551 0-1 .449-1 1v1c0 .551.449 1 1 1 .551 0 1-.449 1-1h1a2 2 0 1 1-4 0V7a2 2 0 0 1 2-2zM4.5 6a1.5 1.5 0 1 1-.001 3.001A1.5 1.5 0 0 1 4.5 6zM8 6v1h.5a.5.5 0 0 0 0-1H8z"/>
</svg>
