<svg xmlns="http://www.w3.org/2000/svg" width="22" height="19" viewBox="0 0 22 19">
    <path fill="#212B35" fill-rule="nonzero" d="M4.5 0a.5.5 0 1 0 0 1 .5.5 0 0 0 0-1zm5 0a.5.5 0 1 0 0 1 .5.5 0 0 0 0-1zm-7 1a.5.5 0 1 0 0 1 .5.5 0 0 0 0-1zm9 0a.5.5 0 1 0 0 1 .5.5 0 0 0 0-1zM7 2a4 4 0 0 0-4 4 4 4 0 0 0 3 3.87V11a1 1 0 0 0 2 0V9.867A4 4 0 0 0 11 6a4 4 0 0 0-4-4zm7.5 0a.5.5 0 1 0 0 1 .5.5 0 0 0 0-1zm3 0a.5.5 0 1 0 0 1 .5.5 0 0 0 0-1zm-16 1a.5.5 0 1 0 0 1 .5.5 0 0 0 0-1zm11 0a.5.5 0 1 0 0 1 .5.5 0 0 0 0-1zm7 0a.5.5 0 1 0 0 1 .5.5 0 0 0 0-1zM16 4a3 3 0 0 0-1 5.826V11a1 1 0 0 0 2 0V9.824A3 3 0 0 0 19 7a3 3 0 0 0-3-3zm4.5 1a.5.5 0 1 0 0 1 .5.5 0 0 0 0-1zM7 13c-4.121 0-7 1.55-7 3.771V18a1 1 0 0 0 1 1h12a1 1 0 0 0 1-1v-1.229C14 14.551 11.121 13 7 13zm9 0c-.617 0-1.208.047-1.768.127 1.13.961 1.768 2.201 1.768 3.644V18a1 1 0 0 0 1 1h4a1 1 0 0 0 1-1v-1.783C22 14.323 19.532 13 16 13z"/>
</svg>
