<svg width="20px" height="20px" viewBox="0 0 20 20" version="1.1" xmlns="http://www.w3.org/2000/svg" xmlns:xlink="http://www.w3.org/1999/xlink">

    <g id="Vendor" stroke="none" stroke-width="1" fill="none" fill-rule="evenodd">
        <g id="Vendor-Onboarding---Waiting-Approval" transform="translate(-259.000000, -391.000000)" fill="#FF9500" fill-rule="nonzero">
            <g id="icons8-refresh" transform="translate(259.000000, 391.000000)">
                <path d="M10,0 C5.7389325,0 2.18099,2.63346333 0.729166667,6.35416667 L2.265625,6.97916667 C3.4798175,3.8671875 6.42578167,1.66666667 10,1.66666667 C12.7018233,1.66666667 15.1106775,2.99153667 16.6145833,5 L13.3333333,5 L13.3333333,6.66666667 L19.1666667,6.66666667 L19.1666667,0.833333333 L17.5,0.833333333 L17.5,3.41145833 C15.6738283,1.31835917 12.9752608,0 10,0 Z M17.734375,13.0208333 C16.5201825,16.1328125 13.5742192,18.3333333 10,18.3333333 C7.26888,18.3333333 4.86979167,16.9889325 3.359375,15 L6.66666667,15 L6.66666667,13.3333333 L0.833333333,13.3333333 L0.833333333,19.1666667 L2.5,19.1666667 L2.5,16.5885417 C4.32291667,18.6555992 6.9954425,20 10,20 C14.2610675,20 17.8190108,17.3665367 19.2708333,13.6458333 L17.734375,13.0208333 Z" id="Shape"></path>
            </g>
        </g>
    </g>
</svg>