<svg xmlns="http://www.w3.org/2000/svg" width="20" height="22" viewBox="0 0 20 22">
    <path fill="#212B35" fill-rule="nonzero" d="M2 0a2 2 0 0 0-2 2v16a2 2 0 0 0 2 2h6.684a6.926 6.926 0 0 1-.604-2h-.006A6.873 6.873 0 0 1 8 17c0-3.526 2.609-6.434 6-6.92.327-.047.66-.08 1-.08.34 0 .673.033 1 .08V6.828a2 2 0 0 0-.586-1.414L10.586.586A2 2 0 0 0 9.172 0H2zm7 1.455L14.5 7H10a1 1 0 0 1-1-1V1.455zM15 12c-2.75 0-5 2.25-5 5s2.25 5 5 5 5-2.25 5-5-2.25-5-5-5zm0 2.34c.17 0 .338.064.467.193l2.338 2.338A.66.66 0 0 1 17.338 18h-4.676a.66.66 0 0 1-.467-1.129l2.336-2.338A.662.662 0 0 1 15 14.34z"/>
</svg>
