<?xml version="1.0" encoding="UTF-8"?>
<svg width="66px" height="50px" viewBox="0 0 66 50" version="1.1" xmlns="http://www.w3.org/2000/svg" xmlns:xlink="http://www.w3.org/1999/xlink">
    <!-- Generator: Sketch 52.4 (67378) - http://www.bohemiancoding.com/sketch -->
    <title>Group</title>
    <desc>Created with Sketch.</desc>
    <g id="Recruit-Setup" stroke="none" stroke-width="1" fill="none" fill-rule="evenodd">
        <g id="Portal-Theme" transform="translate(-728.000000, -332.000000)">
            <g id="Group-4" transform="translate(687.000000, 332.000000)">
                <g id="Group" transform="translate(41.000000, 0.000000)">
                    <path d="M55.39215,20.23335 C54.47365,20.23335 53.5872333,20.3671833 52.74115,20.59635 C52.8474833,19.8116833 52.9217333,19.0169333 52.9217333,18.2029333 C52.9217333,8.37993333 44.9577333,0.41685 35.1347333,0.41685 C27.2019,0.41685 20.4873167,5.61251667 18.1947333,12.78635 C16.9068167,12.3986 15.5428167,12.1850167 14.1284,12.1850167 C6.32665,12.1850167 -0.000183333333,18.5100167 -0.000183333333,26.3126833 C-0.000183333333,34.1171833 6.32665,40.4421833 14.1284,40.4421833 L55.39215,40.4421833 C60.9728167,40.4421833 65.49565,35.9175167 65.49565,30.33685 C65.49565,24.7571 60.9728167,20.23335 55.39215,20.23335" id="Fill-1" fill="#D7DBDF"></path>
                    <polygon id="Fill-4" fill="#FFFFFF" points="31.5681667 48.9427083 58.7106667 48.9427083 58.7106667 28.5129583 31.5681667 28.5129583"></polygon>
                    <path d="M32.4848333,48.0260417 L57.794,48.0260417 L57.794,29.429625 L32.4848333,29.429625 L32.4848333,48.0260417 Z M58.7106667,49.859375 L31.5681667,49.859375 C31.06125,49.859375 30.6515,49.449625 30.6515,48.9427083 L30.6515,28.5129583 C30.6515,28.0069583 31.06125,27.5962917 31.5681667,27.5962917 L58.7106667,27.5962917 C59.2175833,27.5962917 59.6273333,28.0069583 59.6273333,28.5129583 L59.6273333,48.9427083 C59.6273333,49.449625 59.2175833,49.859375 58.7106667,49.859375 Z" id="Fill-6" fill="#637381"></path>
                    <path d="M59.6272417,48.5632083 L58.573075,46.6207917 C58.776575,46.6519583 58.991075,46.628125 59.1826583,46.5135417 C59.6162417,46.2522917 59.7574083,45.6894583 59.4961583,45.2549583 L52.971325,34.3777917 C52.8099917,34.107375 52.5184917,33.939625 52.2031583,33.934125 C51.8942417,33.9249583 51.590825,34.0844583 51.4184917,34.349375 L44.9917417,44.1824583 L38.9334917,38.0820417 C38.740075,37.888625 38.4797417,37.7877917 38.198325,37.8152917 C37.926075,37.8409583 37.6794917,37.9857917 37.5254917,38.2112917 L30.8099917,48.047125 C30.5249083,48.465125 30.633075,49.0362083 31.051075,49.320375 C31.2087417,49.4285417 31.3884083,49.479875 31.5671583,49.479875 C31.859575,49.479875 32.1464917,49.3405417 32.3252417,49.0802083 L32.6781583,48.5632083 L59.6272417,48.5632083 Z" id="Fill-7" fill="#637381"></path>
                    <path d="M37.3417,30.8045333 C35.89795,30.8045333 34.7227833,31.9797 34.7227833,33.42345 C34.7227833,34.8690333 35.89795,36.0451167 37.3417,36.0451167 C38.78545,36.0451167 39.9606167,34.8690333 39.9606167,33.42345 C39.9606167,31.9797 38.78545,30.8045333 37.3417,30.8045333" id="Fill-8" fill="#637381"></path>
                </g>
            </g>
        </g>
    </g>
</svg>