<?xml version="1.0" encoding="UTF-8"?>
<svg width="13px" height="13px" viewBox="0 0 13 13" version="1.1" xmlns="http://www.w3.org/2000/svg" xmlns:xlink="http://www.w3.org/1999/xlink">
    <!-- Generator: Sketch 49.3 (51167) - http://www.bohemiancoding.com/sketch -->
    <title>icons8-instagram_new</title>
    <desc>Created with Sketch.</desc>
    <defs></defs>
    <g id="Recruit-Setup" stroke="none" stroke-width="1" fill="none" fill-rule="evenodd">
        <g id="Candidate-View---Default" transform="translate(-790.000000, -136.000000)" fill="#505F6E" fill-rule="nonzero">
            <g id="Group-3" transform="translate(757.000000, 136.000000)">
                <g id="icons8-instagram_new" transform="translate(33.000000, 0.000000)">
                    <path d="M3.773438,0 C1.695313,0 0,1.695313 0,3.773438 L0,9.230469 C0,11.304688 1.695313,13 3.773438,13 L9.230469,13 C11.304688,13 13,11.304688 13,9.226563 L13,3.773438 C13,1.695313 11.304688,0 9.226563,0 L3.773438,0 Z M3.773438,1 L9.226563,1 C10.765625,1 12,2.234375 12,3.773438 L12,9.226563 C12,10.765625 10.765625,12 9.230469,12 L3.773438,12 C2.234375,12 1,10.765625 1,9.230469 L1,3.773438 C1,2.234375 2.234375,1 3.773438,1 Z M10.5,2 C10.222656,2 10,2.222656 10,2.5 C10,2.777344 10.222656,3 10.5,3 C10.777344,3 11,2.777344 11,2.5 C11,2.222656 10.777344,2 10.5,2 Z M6.5,3 C4.574219,3 3,4.574219 3,6.5 C3,8.425781 4.574219,10 6.5,10 C8.425781,10 10,8.425781 10,6.5 C10,4.574219 8.425781,3 6.5,3 Z M6.5,4 C7.886719,4 9,5.113281 9,6.5 C9,7.886719 7.886719,9 6.5,9 C5.113281,9 4,7.886719 4,6.5 C4,5.113281 5.113281,4 6.5,4 Z" id="Shape"></path>
                </g>
            </g>
        </g>
    </g>
</svg>