<?xml version="1.0" encoding="UTF-8"?>
<svg width="10px" height="14px" viewBox="0 0 10 14" version="1.1" xmlns="http://www.w3.org/2000/svg" xmlns:xlink="http://www.w3.org/1999/xlink">
    <!-- Generator: Sketch 51.1 (57501) - http://www.bohemiancoding.com/sketch -->
    <title>icons8-marker</title>
    <desc>Created with Sketch.</desc>
    <defs></defs>
    <g id="Recruit-Setup" stroke="none" stroke-width="1" fill="none" fill-rule="evenodd">
        <g id="Job-View---Default" transform="translate(-316.000000, -93.000000)" fill="#505F6E" fill-rule="nonzero">
            <g id="icons8-marker" transform="translate(316.000000, 93.000000)">
                <path d="M5,0 C2.246094,0 0,2.246094 0,5 C0,5.773438 0.316406,6.621094 0.753906,7.515625 C1.191406,8.414063 1.761719,9.351563 2.335938,10.207031 C3.476563,11.921875 4.613281,13.316406 4.613281,13.316406 L5,13.792969 L5.386719,13.316406 C5.386719,13.316406 6.523438,11.921875 7.667969,10.207031 C8.238281,9.351563 8.808594,8.414063 9.246094,7.515625 C9.683594,6.621094 10,5.773438 10,5 C10,2.246094 7.753906,0 5,0 Z M5,1 C7.214844,1 9,2.785156 9,5 C9,5.46875 8.753906,6.246094 8.347656,7.078125 C7.941406,7.914063 7.386719,8.820313 6.835938,9.65625 C5.917969,11.03125 5.292969,11.789063 5,12.15625 C4.707031,11.789063 4.082031,11.03125 3.164063,9.65625 C2.613281,8.820313 2.058594,7.914063 1.652344,7.078125 C1.246094,6.246094 1,5.46875 1,5 C1,2.785156 2.785156,1 5,1 Z M5,4 C4.449219,4 4,4.449219 4,5 C4,5.550781 4.449219,6 5,6 C5.550781,6 6,5.550781 6,5 C6,4.449219 5.550781,4 5,4 Z" id="Shape"></path>
            </g>
        </g>
    </g>
</svg>