<svg xmlns="http://www.w3.org/2000/svg" width="13" height="14" viewBox="0 0 13 14">
    <path fill="#FFF" fill-rule="nonzero" d="M6.5.5L4 3h2v7h1V3h2L6.5.5zM3 2.031a6.766 6.766 0 0 0-.75.57.69.69 0 0 0-.086.063c-.031.027-.059.063-.09.094-.078.07-.152.148-.23.226-.07.075-.14.145-.207.22-.078.085-.149.175-.223.265-.062.086-.133.164-.195.25-.012.023-.028.039-.043.062h.004A6.468 6.468 0 0 0 0 7.5C0 11.086 2.914 14 6.5 14S13 11.086 13 7.5a6.453 6.453 0 0 0-1.563-4.21h-.003a5.841 5.841 0 0 0-.399-.427l-.058-.058c-.047-.047-.094-.098-.145-.14a.463.463 0 0 0-.09-.063 6.14 6.14 0 0 0-.742-.57v1.23c.137.113.262.238.387.363l.175.176c0 .004.004.004.004.008.145.156.278.324.399.496A5.43 5.43 0 0 1 12 7.5c0 3.043-2.457 5.5-5.5 5.5a5.493 5.493 0 0 1-4.05-9.21c.038-.044.077-.08.12-.118.137-.145.278-.285.43-.41v-.153a.473.473 0 0 0 0-.148v-.93z"/>
</svg>
