<svg width="29" height="21" viewBox="0 0 29 21" fill="none" xmlns="http://www.w3.org/2000/svg">
<path fill-rule="evenodd" clip-rule="evenodd" d="M29 18.2C29 19.7463 27.7634 21 26.2381 21H2.7619C1.23664 21 0 19.7463 0 18.2V2.8C0 1.2537 1.23664 0 2.7619 0H26.2381C27.7634 0 29 1.2537 29 2.8V18.2Z" fill="#3F51B5"/>
<path fill-rule="evenodd" clip-rule="evenodd" d="M19 18C22.866 18 26 14.866 26 11C26 7.13401 22.866 4 19 4C15.134 4 12 7.13401 12 11C12 14.866 15.134 18 19 18Z" fill="#FFC107"/>
<path fill-rule="evenodd" clip-rule="evenodd" d="M13.5098 15.2C13.185 14.7681 12.9057 14.3012 12.6866 13.8H16.4141C16.6087 13.3548 16.7613 12.8872 16.86 12.4H12.2414C12.149 11.9478 12.1 11.4802 12.1 11H17C17 10.5198 16.951 10.0522 16.8593 9.6H12.2407C12.3401 9.1128 12.492 8.6452 12.6866 8.2H16.4141C16.195 7.6988 15.9164 7.2319 15.5909 6.8H13.5098C13.8157 6.394 14.1608 6.0146 14.5465 5.6835C13.3229 4.6363 11.7367 4 10 4C6.1339 4 3 7.1339 3 11C3 14.8661 6.1339 18 10 18C12.2883 18 14.3134 16.8975 15.5902 15.2H13.5098Z" fill="#FF3D00"/>
</svg>
