<?xml version="1.0" encoding="UTF-8"?>
<svg width="20px" height="20px" viewBox="0 0 20 20" version="1.1" xmlns="http://www.w3.org/2000/svg" xmlns:xlink="http://www.w3.org/1999/xlink">
    <!-- Generator: Sketch 52.2 (67145) - http://www.bohemiancoding.com/sketch -->
    <title>icons8-sad</title>
    <desc>Created with Sketch.</desc>
    <g id="Recruit-Setup" stroke="none" stroke-width="1" fill="none" fill-rule="evenodd">
        <g id="Scorecard---Default" transform="translate(-1010.000000, -526.000000)" fill="#FEBA8B" fill-rule="nonzero">
            <g id="icons8-sad" transform="translate(1010.000000, 526.000000)">
                <path d="M10,0 C4.487023,0 0,4.487023 0,10 C0,15.5129767 4.487023,20 10,20 C15.5129767,20 20,15.5129767 20,10 C20,4.487023 15.5129767,0 10,0 Z M10,1.66666667 C14.6122433,1.66666667 18.3333333,5.38775658 18.3333333,10 C18.3333333,14.6122433 14.6122433,18.3333333 10,18.3333333 C5.38775658,18.3333333 1.66666667,14.6122433 1.66666667,10 C1.66666667,5.38775658 5.38775658,1.66666667 10,1.66666667 Z M6.25,8.33333333 C5.55964406,8.33333333 5,8.8929774 5,9.58333333 C5,10.2736893 5.55964406,10.8333333 6.25,10.8333333 C6.94035594,10.8333333 7.5,10.2736893 7.5,9.58333333 C7.5,8.8929774 6.94035594,8.33333333 6.25,8.33333333 Z M13.75,8.33333333 C13.0596441,8.33333333 12.5,8.8929774 12.5,9.58333333 C12.5,10.2736893 13.0596441,10.8333333 13.75,10.8333333 C14.4403559,10.8333333 15,10.2736893 15,9.58333333 C15,8.8929774 14.4403559,8.33333333 13.75,8.33333333 Z M7.08333333,13.3333333 L12.9166667,13.3333333 C13.376904,13.3333333 13.75,13.7064294 13.75,14.1666667 L13.75,14.1666667 C13.75,14.626904 13.376904,15 12.9166667,15 L7.08333333,15 C6.62309604,15 6.25,14.626904 6.25,14.1666667 L6.25,14.1666667 C6.25,13.7064294 6.62309604,13.3333333 7.08333333,13.3333333 Z" id="Shape"></path>
            </g>
        </g>
    </g>
</svg>