<?xml version="1.0" encoding="UTF-8"?>
<svg width="13px" height="13px" viewBox="0 0 13 13" version="1.1" xmlns="http://www.w3.org/2000/svg" xmlns:xlink="http://www.w3.org/1999/xlink">
    <!-- Generator: Sketch 51.1 (57501) - http://www.bohemiancoding.com/sketch -->
    <title>icons8-user_male_circle</title>
    <desc>Created with Sketch.</desc>
    <defs></defs>
    <g id="Recruit-Setup" stroke="none" stroke-width="1" fill="none" fill-rule="evenodd" opacity="0.5">
        <g id="Default-Screen" transform="translate(-24.000000, -179.000000)" fill="#FFFFFF" fill-rule="nonzero">
            <g id="icons8-user_male_circle" transform="translate(24.000000, 179.000000)">
                <path d="M6.5,0 C2.917969,0 0,2.917969 0,6.5 C0,10.082031 2.917969,13 6.5,13 C10.082031,13 13,10.082031 13,6.5 C13,2.917969 10.082031,0 6.5,0 Z M6.5,1 C9.542969,1 12,3.457031 12,6.5 C12,7.839844 11.523438,9.0625 10.734375,10.015625 C10.304688,8.796875 9.375,7.816406 8.1875,7.332031 C8.683594,6.875 9,6.222656 9,5.5 C9,4.125 7.875,3 6.5,3 C5.125,3 4,4.125 4,5.5 C4,6.222656 4.316406,6.875 4.8125,7.332031 C3.625,7.816406 2.699219,8.796875 2.269531,10.015625 C1.476563,9.0625 1,7.839844 1,6.5 C1,3.457031 3.457031,1 6.5,1 Z M6.5,4 C7.335938,4 8,4.664063 8,5.5 C8,6.335938 7.335938,7 6.5,7 C5.664063,7 5,6.335938 5,5.5 C5,4.664063 5.664063,4 6.5,4 Z M6.5,8 C8.199219,8 9.59375,9.207031 9.917969,10.808594 C8.976563,11.554688 7.792969,12 6.5,12 C5.207031,12 4.023438,11.554688 3.085938,10.808594 C3.40625,9.207031 4.800781,8 6.5,8 Z" id="Shape"></path>
            </g>
        </g>
    </g>
</svg>