<svg width="13px" height="13px" viewBox="0 0 13 13" version="1.1" xmlns="http://www.w3.org/2000/svg" xmlns:xlink="http://www.w3.org/1999/xlink">
    <g id="Recruit-Setup" stroke="none" stroke-width="1" fill="none" fill-rule="evenodd">
        <g id="Job-View" transform="translate(-777.000000, -279.000000)" fill="#505F6E" fill-rule="nonzero">
            <g id="icons8-synchronize" transform="translate(777.000000, 279.000000)">
                <path d="M6.5,0.035156 C2.917969,0.035156 0,2.941406 0,6.515625 L0,7 L1,7 L1,6.515625 C1,3.484375 3.457031,1.035156 6.5,1.035156 C8.132813,1.035156 9.589844,1.75 10.59375,2.875 L9.464844,4 L13,4 L13,0.476563 L11.300781,2.167969 C10.113281,0.863281 8.40625,0.035156 6.5,0.035156 Z M12,6 L12,6.5 C12,9.542969 9.542969,12 6.5,12 C4.859375,12 3.402344,11.277344 2.394531,10.140625 L3.535156,9 L0,9 L0,12.535156 L1.6875,10.847656 C2.878906,12.164063 4.589844,13 6.5,13 C10.085938,13 13,10.085938 13,6.5 L13,6 L12,6 Z" id="Shape"></path>
            </g>
        </g>
    </g>
</svg>