<?xml version="1.0" encoding="UTF-8"?>
<svg width="10px" height="12px" viewBox="0 0 10 12" version="1.1" xmlns="http://www.w3.org/2000/svg" xmlns:xlink="http://www.w3.org/1999/xlink">
    <!-- Generator: Sketch 52.2 (67145) - http://www.bohemiancoding.com/sketch -->
    <title>icons8-resume</title>
    <desc>Created with Sketch.</desc>
    <g id="Recruit-Setup" stroke="none" stroke-width="1" fill="none" fill-rule="evenodd">
        <g id="Job-View" transform="translate(-421.000000, -332.000000)" fill="#000000" fill-rule="nonzero">
            <g id="Group" transform="translate(406.000000, 146.000000)">
                <g id="icons8-resume" transform="translate(15.000000, 186.000000)">
                    <path d="M1.5,0 C0.675781,0 0,0.675781 0,1.5 L0,10.5 C0,11.324219 0.675781,12 1.5,12 L8.5,12 C9.324219,12 10,11.324219 10,10.5 L10,1.5 C10,0.675781 9.324219,0 8.5,0 L1.5,0 Z M1.5,1 L8.5,1 C8.78125,1 9,1.21875 9,1.5 L9,10.5 C9,10.78125 8.78125,11 8.5,11 L1.5,11 C1.21875,11 1,10.78125 1,10.5 L1,1.5 C1,1.21875 1.21875,1 1.5,1 Z M4,2 C3.449219,2 3,2.449219 3,3 C3,3.550781 3.449219,4 4,4 C4.550781,4 5,3.550781 5,3 C5,2.449219 4.550781,2 4,2 Z M4,4 C2.898438,4 2,4.898438 2,6 L6,6 C6,4.898438 5.101563,4 4,4 Z M7,3 L7,4 L8,4 L8,3 L7,3 Z M7,5 L7,6 L8,6 L8,5 L7,5 Z M2,7 L2,8 L8,8 L8,7 L2,7 Z M2,9 L2,10 L8,10 L8,9 L2,9 Z" id="Shape"></path>
                </g>
            </g>
        </g>
    </g>
</svg>