<svg width="20px" height="20px" viewBox="0 0 20 20" version="1.1" xmlns="http://www.w3.org/2000/svg" xmlns:xlink="http://www.w3.org/1999/xlink">
    <g id="Recruit-Setup" stroke="none" stroke-width="1" fill="none" fill-rule="evenodd">
        <g id="Scorecard---Default" transform="translate(-855.000000, -526.000000)" fill="#FE7F7F" fill-rule="nonzero">
            <g id="icons8-sad" transform="translate(855.000000, 526.000000)">
                <path d="M10,0 C4.487023,0 0,4.487023 0,10 C0,15.5129767 4.487023,20 10,20 C15.5129767,20 20,15.5129767 20,10 C20,4.487023 15.5129767,0 10,0 Z M10,1.66666667 C14.6122433,1.66666667 18.3333333,5.38775658 18.3333333,10 C18.3333333,14.6122433 14.6122433,18.3333333 10,18.3333333 C5.38775658,18.3333333 1.66666667,14.6122433 1.66666667,10 C1.66666667,5.38775658 5.38775658,1.66666667 10,1.66666667 Z M6.25,8.33333333 C5.55964406,8.33333333 5,8.8929774 5,9.58333333 C5,10.2736893 5.55964406,10.8333333 6.25,10.8333333 C6.94035594,10.8333333 7.5,10.2736893 7.5,9.58333333 C7.5,8.8929774 6.94035594,8.33333333 6.25,8.33333333 Z M13.75,8.33333333 C13.0596441,8.33333333 12.5,8.8929774 12.5,9.58333333 C12.5,10.2736893 13.0596441,10.8333333 13.75,10.8333333 C14.4403559,10.8333333 15,10.2736893 15,9.58333333 C15,8.8929774 14.4403559,8.33333333 13.75,8.33333333 Z M10,12.5 C8.73611083,12.5 7.73204333,13.0053067 7.06217417,13.4928383 C6.69019569,13.7639134 6.60831994,14.2851735 6.87927895,14.6572365 C7.15023796,15.0292995 7.67147245,15.1113379 8.04362,14.840495 C8.51875083,14.4946933 9.18055583,14.1666667 10,14.1666667 C10.8194442,14.1666667 11.4812492,14.4946933 11.95638,14.840495 C12.197111,15.015925 12.5131577,15.0495685 12.7854249,14.9287477 C13.0576922,14.8079268 13.2447982,14.5510052 13.2762363,14.2547979 C13.3076744,13.9585906 13.1786663,13.6681181 12.9378258,13.4928383 C12.2679567,13.0053067 11.2638892,12.5 10,12.5 Z" id="Shape"></path>
            </g>
        </g>
    </g>
</svg>