<?xml version="1.0" encoding="UTF-8"?>
<svg width="15px" height="15px" viewBox="0 0 15 15" version="1.1" xmlns="http://www.w3.org/2000/svg" xmlns:xlink="http://www.w3.org/1999/xlink">
    <!-- Generator: Sketch 51.1 (57501) - http://www.bohemiancoding.com/sketch -->
    <title>icons8-save_close</title>
    <desc>Created with Sketch.</desc>
    <defs></defs>
    <g id="Recruit-Setup" stroke="none" stroke-width="1" fill="none" fill-rule="evenodd">
        <g id="Add-Job---Details" transform="translate(-956.000000, -92.000000)" fill="#FF2D55" fill-rule="nonzero">
            <g id="icons8-save_close" transform="translate(956.000000, 92.000000)">
                <path d="M1.59375,0 C0.714844,0 0,0.714844 0,1.59375 L0,11.40625 C0,12.285156 0.714844,13 1.59375,13 L6.761719,13 C7.570313,14.203125 8.945313,15 10.5,15 C12.980469,15 15,12.980469 15,10.5 C15,8.945313 14.203125,7.570313 13,6.761719 L13,2.476563 L10.527344,0 L1.59375,0 Z M1.59375,1 L2,1 L2,3.125 C2,4.113281 2.703125,5 3.667969,5 L8.332031,5 C9.296875,5 10,4.113281 10,3.125 L10,1 L10.109375,1 L12,2.890625 L12,6.273438 C11.527344,6.105469 11.027344,6 10.5,6 C8.945313,6 7.570313,6.796875 6.761719,8 L4.5,8 C3.671875,8 3,8.671875 3,9.5 L3,12 L1.59375,12 C1.265625,12 1,11.734375 1,11.40625 L1,1.59375 C1,1.265625 1.265625,1 1.59375,1 Z M3,1 L6,1 L6,3 L8,3 L8,1 L9,1 L9,3.125 C9,3.65625 8.660156,4 8.332031,4 L3.667969,4 C3.339844,4 3,3.65625 3,3.125 L3,1 Z M10.5,7 C12.4375,7 14,8.5625 14,10.5 C14,12.4375 12.4375,14 10.5,14 C8.5625,14 7,12.4375 7,10.5 C7,8.5625 8.5625,7 10.5,7 Z M12,8.859375 L10.160156,10.703125 L9.015625,9.558594 L8.304688,10.265625 L10.160156,12.117188 L12.707031,9.566406 L12,8.859375 Z M4.5,9 L6.273438,9 C6.105469,9.472656 6,9.972656 6,10.5 C6,11.027344 6.105469,11.527344 6.273438,12 L4,12 L4,9.5 C4,9.222656 4.226563,9 4.5,9 Z" id="Shape"></path>
            </g>
        </g>
    </g>
</svg>