<?xml version="1.0" encoding="UTF-8"?>
<svg width="13px" height="13px" viewBox="0 0 13 13" version="1.1" xmlns="http://www.w3.org/2000/svg" xmlns:xlink="http://www.w3.org/1999/xlink">
    <!-- Generator: Sketch 51.1 (57501) - http://www.bohemiancoding.com/sketch -->
    <title>icons8-search</title>
    <desc>Created with Sketch.</desc>
    <defs></defs>
    <g id="Recruit-Setup" stroke="none" stroke-width="1" fill="none" fill-rule="evenodd">
        <g id="Default-Screen" transform="translate(-25.000000, -82.000000)" fill="#FFFFFF" fill-rule="nonzero">
            <g id="icons8-search" transform="translate(25.000000, 82.000000)">
                <path d="M8.5,0 C6.019531,0 4,2.019531 4,4.5 C4,5.558594 4.382813,6.523438 5,7.292969 L0.023438,12.269531 L0.726563,12.980469 L5.707031,8 C6.476563,8.617188 7.441406,9 8.5,9 C10.980469,9 13,6.980469 13,4.5 C13,2.019531 10.980469,0 8.5,0 Z M8.5,1 C10.4375,1 12,2.5625 12,4.5 C12,6.4375 10.4375,8 8.5,8 C6.5625,8 5,6.4375 5,4.5 C5,2.5625 6.5625,1 8.5,1 Z" id="Shape"></path>
            </g>
        </g>
    </g>
</svg>