<?xml version="1.0" encoding="UTF-8"?>
<svg width="14px" height="12px" viewBox="0 0 14 12" version="1.1" xmlns="http://www.w3.org/2000/svg" xmlns:xlink="http://www.w3.org/1999/xlink">
    <!-- Generator: Sketch 51.1 (57501) - http://www.bohemiancoding.com/sketch -->
    <title>icons8-report_card</title>
    <desc>Created with Sketch.</desc>
    <defs></defs>
    <g id="Symbols" stroke="none" stroke-width="1" fill="none" fill-rule="evenodd">
        <g id="Left-Menu" transform="translate(-42.000000, -334.000000)" fill="#8C93A3" fill-rule="nonzero">
            <g id="icons8-report_card" transform="translate(42.000000, 334.000000)">
                <path d="M1.5,0 C0.675781,0 0,0.675781 0,1.5 L0,10.5 C0,11.324219 0.675781,12 1.5,12 L12.5,12 C13.324219,12 14,11.324219 14,10.5 L14,1.5 C14,0.675781 13.324219,0 12.5,0 L1.5,0 Z M1.5,1 L12.5,1 C12.78125,1 13,1.21875 13,1.5 L13,10.5 C13,10.78125 12.78125,11 12.5,11 L1.5,11 C1.21875,11 1,10.78125 1,10.5 L1,1.5 C1,1.21875 1.21875,1 1.5,1 Z M11.269531,3.023438 L9.5,4.792969 L8.726563,4.023438 L8.023438,4.726563 L9.144531,5.851563 C9.339844,6.046875 9.660156,6.046875 9.855469,5.851563 L11.980469,3.726563 L11.269531,3.023438 Z M3,4 L3,5 L7,5 L7,4 L3,4 Z M11.269531,6.023438 L9.5,7.792969 L8.726563,7.023438 L8.023438,7.726563 L9.144531,8.855469 C9.339844,9.046875 9.660156,9.046875 9.855469,8.855469 L11.980469,6.726563 L11.269531,6.023438 Z M3,7 L3,8 L7,8 L7,7 L3,7 Z" id="Shape" fill="white"></path>
            </g>
        </g>
    </g>
</svg>