<?xml version="1.0" encoding="UTF-8"?>
<svg width="13px" height="13px" viewBox="0 0 13 13" version="1.1" xmlns="http://www.w3.org/2000/svg" xmlns:xlink="http://www.w3.org/1999/xlink">
    <!-- Generator: Sketch 51.1 (57501) - http://www.bohemiancoding.com/sketch -->
    <title>icons8-api</title>
    <desc>Created with Sketch.</desc>
    <defs></defs>
    <g id="Symbols" stroke="none" stroke-width="1" fill="none" fill-rule="evenodd" opacity="0.5">
        <g id="Left-Menu" transform="translate(-43.000000, -413.000000)" fill="#FFFFFF" fill-rule="nonzero">
            <g id="icons8-api" transform="translate(43.000000, 413.000000)">
                <path d="M1.5,0 C0.6774686,0 0,0.6774686 0,1.5 L0,3 L1,3 L1,1.5 C1,1.2185314 1.2185314,1 1.5,1 L11.5,1 C11.781469,1 12,1.2185314 12,1.5 L12,3 L13,3 L13,1.5 C13,0.6774686 12.322531,0 11.5,0 L1.5,0 Z M3.5,4 C2.6774686,4 2,4.6774686 2,5.5 L2,9 L3,9 L3,8 L4,8 L4,9 L5,9 L5,5.5 C5,4.6774686 4.3225314,4 3.5,4 Z M6,4 L6,9 L7,9 L7,7 L7.5,7 C8.3225314,7 9,6.3225314 9,5.5 C9,4.6774686 8.3225314,4 7.5,4 L7,4 L6.375,4 L6,4 Z M10,4 L10,9 L11,9 L11,4 L10,4 Z M3.5,5 C3.7814686,5 4,5.2185314 4,5.5 L4,7 L3,7 L3,5.5 C3,5.2185314 3.2185314,5 3.5,5 Z M7,5 L7.5,5 C7.7814686,5 8,5.2185314 8,5.5 C8,5.7814686 7.7814686,6 7.5,6 L7,6 L7,5 Z M0,10 L0,11.5 C0,12.322531 0.6774686,13 1.5,13 L11.5,13 C12.322531,13 13,12.322531 13,11.5 L13,10 L12,10 L12,11.5 C12,11.781469 11.781469,12 11.5,12 L1.5,12 C1.2185314,12 1,11.781469 1,11.5 L1,10 L0,10 Z" id="Shape"></path>
            </g>
        </g>
    </g>
</svg>