<?xml version="1.0" encoding="UTF-8"?>
<svg width="14px" height="13px" viewBox="0 0 14 13" version="1.1" xmlns="http://www.w3.org/2000/svg" xmlns:xlink="http://www.w3.org/1999/xlink">
    <!-- Generator: Sketch 51.1 (57501) - http://www.bohemiancoding.com/sketch -->
    <title>icons8-generic_sorting_2</title>
    <desc>Created with Sketch.</desc>
    <defs></defs>
    <g id="Recruit-Setup" stroke="none" stroke-width="1" fill="none" fill-rule="evenodd">
        <g id="Job-View" transform="translate(-444.000000, -181.000000)" fill="#505F6E" fill-rule="nonzero">
            <g id="icons8-generic_sorting_2" transform="translate(444.000000, 181.000000)">
                <path d="M0,0 L0,1 L1,1 L1,0 L0,0 Z M10,1 L10,10.042969 L7.726563,7.773438 L7.023438,8.476563 L10.5,11.957031 L13.980469,8.476563 L13.269531,7.773438 L11,10.042969 L11,1 L10,1 Z M0,2 L0,3 L2,3 L2,2 L0,2 Z M0,4 L0,5 L3,5 L3,4 L0,4 Z M0,6 L0,7 L4,7 L4,6 L0,6 Z M0,8 L0,9 L5,9 L5,8 L0,8 Z M0,10 L0,11 L6,11 L6,10 L0,10 Z M0,12 L0,13 L7,13 L7,12 L0,12 Z" id="Shape"></path>
            </g>
        </g>
    </g>
</svg>