<svg xmlns="http://www.w3.org/2000/svg" width="17" height="16" viewBox="0 0 17 16">
    <path fill="#FF3B30" fill-rule="nonzero" d="M3.482 16a.487.487 0 0 1-.204-.067.37.37 0 0 1-.136-.37l1.497-5.513-4.49-3.596c-.137-.067-.17-.236-.137-.37a.326.326 0 0 1 .306-.235l5.783-.303L8.177.202C8.245.1 8.38 0 8.517 0c.136 0 .272.1.306.202l2.075 5.344 5.783.303c.136 0 .272.1.306.235a.376.376 0 0 1-.102.37l-4.49 3.596 1.497 5.513a.334.334 0 0 1-.136.37c-.103.067-.273.1-.375 0L8.517 12.84l-4.865 3.093C3.584 16 3.55 16 3.482 16z"/>
</svg>
