<svg xmlns="http://www.w3.org/2000/svg" width="17" height="16" viewBox="0 0 17 16">
    <path fill="#C7C7CC" fill-rule="nonzero" d="M8.5 0a.34.34 0 0 0-.317.215L6.087 5.558l-5.764.29a.34.34 0 0 0-.306.232.334.334 0 0 0 .108.365l4.488 3.628-1.474 5.505a.334.334 0 0 0 .129.358.343.343 0 0 0 .384.01L8.5 12.87l4.848 3.077c.118.075.27.07.384-.011a.334.334 0 0 0 .129-.358l-1.474-5.505 4.488-3.628a.334.334 0 0 0 .108-.365.34.34 0 0 0-.306-.231l-5.764-.291L8.817.215A.34.34 0 0 0 8.5 0zm0 1.265l1.859 4.739a.34.34 0 0 0 .3.214l5.103.258-3.975 3.213a.334.334 0 0 0-.113.346l1.306 4.879-4.296-2.727a.343.343 0 0 0-.368 0L4.02 14.914l1.306-4.879a.334.334 0 0 0-.113-.346L1.238 6.476l5.103-.258a.34.34 0 0 0 .3-.214L8.5 1.265z"/>
</svg>
