<?xml version="1.0" encoding="UTF-8"?>
<svg width="14px" height="11px" viewBox="0 0 14 11" version="1.1" xmlns="http://www.w3.org/2000/svg" xmlns:xlink="http://www.w3.org/1999/xlink">
    <!-- Generator: Sketch 52.2 (67145) - http://www.bohemiancoding.com/sketch -->
    <title>icons8-student_center</title>
    <desc>Created with Sketch.</desc>
    <g id="Recruit-Setup" stroke="none" stroke-width="1" fill="none" fill-rule="evenodd">
        <g id="Job-View" transform="translate(-419.000000, -268.000000)" fill="#000000" fill-rule="nonzero">
            <g id="Group" transform="translate(406.000000, 146.000000)">
                <g id="icons8-student_center" transform="translate(13.000000, 122.000000)">
                    <path d="M7,0 L0,1.972656 L0,3.015625 L7,1.046875 L14,3.015625 L14,1.972656 L7,0 Z M7,4 C6.949219,4 6.902344,4.007813 6.851563,4.023438 L0.351563,6.023438 C0.144531,6.085938 0,6.28125 0,6.5 C0,6.71875 0.144531,6.914063 0.351563,6.976563 L3,7.792969 L3,9.324219 C3,9.695313 3.210938,9.890625 3.425781,10.066406 C3.640625,10.242188 3.914063,10.390625 4.25,10.527344 C4.925781,10.792969 5.855469,10.988281 7,10.988281 C8.144531,10.988281 9.074219,10.792969 9.75,10.527344 C10.085938,10.390625 10.359375,10.242188 10.574219,10.066406 C10.789063,9.890625 11,9.695313 11,9.324219 L11,7.792969 L13.644531,6.976563 C13.855469,6.914063 14,6.71875 14,6.5 C14,6.28125 13.855469,6.085938 13.644531,6.023438 L7.148438,4.023438 C7.097656,4.007813 7.050781,4 7,4 Z M7,5.023438 L11.796875,6.5 L7,7.976563 L2.203125,6.5 L7,5.023438 Z M4,8.097656 L6.851563,8.980469 C6.949219,9.007813 7.050781,9.007813 7.148438,8.980469 L10,8.097656 L10,9.222656 C9.996094,9.234375 9.988281,9.253906 9.941406,9.292969 C9.839844,9.375 9.644531,9.488281 9.378906,9.59375 C8.847656,9.808594 8.027344,9.988281 7,9.988281 C5.972656,9.988281 5.152344,9.808594 4.621094,9.59375 C4.355469,9.488281 4.160156,9.375 4.054688,9.292969 C4.011719,9.253906 4.003906,9.234375 4,9.222656 L4,8.097656 Z" id="Shape"></path>
                </g>
            </g>
        </g>
    </g>
</svg>