<svg xmlns="http://www.w3.org/2000/svg" width="10" height="13" viewBox="0 0 10 13">
    <path fill="#455565" fill-rule="nonzero" d="M5 0C3.538 0 2.265.454 1.373 1.363.481 2.273 0 3.605 0 5.25c0 2.868.822 4.88.96 5.209l-.907 1.818A.5.5 0 0 0 .5 13h9a.5.5 0 0 0 .447-.723L9.04 10.46C9.178 10.13 10 8.118 10 5.25c0-1.645-.481-2.977-1.373-3.887C7.735.454 6.462 0 5 0zm0 1c1.26 0 2.236.372 2.914 1.063C8.592 2.752 9 3.796 9 5.25c0 2.889-.957 5.047-.957 5.047a.5.5 0 0 0 .01.426L8.69 12H1.31l.638-1.277a.5.5 0 0 0 .01-.426S1 8.139 1 5.25c0-1.454.408-2.497 1.086-3.188C2.764 1.373 3.74 1 5 1zM3.2 4c-.664 0-1.2.445-1.2.994 0 .55.536.994 1.2.994.92 0 1.8-.994 1.8-.994S4.133 4 3.2 4zm1.8.994s.88.994 1.8.994c.664 0 1.2-.445 1.2-.994C8 4.445 7.464 4 6.8 4c-.933 0-1.8.994-1.8.994zm0 1.994c-.552 0-1 .884-1 1.637s.448 1.363 1 1.363 1-.61 1-1.363-.448-1.637-1-1.637z"/>
</svg>
