<?xml version="1.0" encoding="UTF-8"?>
<svg width="13px" height="13px" viewBox="0 0 13 13" version="1.1" xmlns="http://www.w3.org/2000/svg" xmlns:xlink="http://www.w3.org/1999/xlink">
    <g id="Symbols" stroke="none" stroke-width="1" fill="none" fill-rule="evenodd">
        <g id="Left-Menu" transform="translate(-43.000000, -492.000000)" fill="#FFFFFF" fill-rule="nonzero">
            <g id="icons8-themes" transform="translate(43.000000, 492.000000)">
                <path d="M2.507813,0 C1.683594,0 1.003906,0.675781 1.003906,1.5 L1.003906,3.226563 L1,3.210938 C0.226563,3.492188 -0.179687,4.363281 0.101563,5.132813 L1.875,10.015625 C2.085938,10.589844 2.625,10.960938 3.203125,10.996094 L4.410156,12.457031 C4.933594,13.09375 5.886719,13.1875 6.523438,12.664063 L6.523438,12.660156 L12.453125,7.773438 C12.789063,7.492188 12.980469,7.09375 13,6.6875 L12.976563,6.6875 C12.984375,6.625 12.996094,6.566406 12.996094,6.5 L13,1.507813 C13,0.683594 12.324219,0.007813 11.5,0.007813 L2.507813,0 Z M2.503906,1 L8,1.003906 L8,7 L2.5,7 C2.21875,7 2,6.78125 2,6.5 L2.003906,1.5 C2.003906,1.214844 2.222656,1 2.503906,1 Z M9,1.003906 L11.5,1.007813 C11.78125,1.007813 12,1.222656 12,1.507813 L11.996094,6.5 C11.996094,6.785156 11.78125,7 11.496094,7 L9,7 L9,1.003906 Z M10.5,2 C10.222656,2 10,2.222656 10,2.5 C10,2.777344 10.222656,3 10.5,3 C10.777344,3 11,2.777344 11,2.5 C11,2.222656 10.777344,2 10.5,2 Z M2.195313,7.96875 C2.195313,7.96875 2.199219,7.96875 2.199219,7.96875 C2.296875,7.988281 2.398438,8 2.5,8 L8.871094,8 L3.457031,9.96875 C3.191406,10.066406 2.914063,9.9375 2.816406,9.671875 L2.195313,7.96875 Z M9.671875,8.773438 L5.886719,11.890625 C5.667969,12.070313 5.359375,12.039063 5.179688,11.824219 L4.285156,10.734375 L9.671875,8.773438 Z" id="Shape"></path>
            </g>
        </g>
    </g>
</svg>