<svg width="11" height="13" viewBox="0 0 11 13" fill="none" xmlns="http://www.w3.org/2000/svg">
<g id="icons8-trash">
<path id="Shape" fill-rule="evenodd" clip-rule="evenodd" d="M3 1.49609C3 0.675781 3.67578 0 4.49609 0H6.50391C7.32422 0 8 0.675781 8 1.49609V2H11V3H10V11.5C10 12.3242 9.32422 13 8.5 13H2.5C1.67578 13 1 12.3242 1 11.5V3H0V2H3V1.49609ZM6.50391 1H4.49609C4.21484 1 4 1.21484 4 1.49609V2H7V1.49609C7 1.21484 6.78516 1 6.50391 1ZM2 3H9V11.5C9 11.7812 8.78125 12 8.5 12H2.5C2.21875 12 2 11.7812 2 11.5V3ZM3 11V4H4V11H3ZM5 4V11H6V4H5ZM7 11V4H8V11H7Z" fill="#212B35"/>
</g>
</svg>
