<?xml version="1.0" encoding="UTF-8"?>
<svg width="14px" height="11px" viewBox="0 0 14 11" version="1.1" xmlns="http://www.w3.org/2000/svg" xmlns:xlink="http://www.w3.org/1999/xlink">
    <!-- Generator: Sketch 49.3 (51167) - http://www.bohemiancoding.com/sketch -->
    <title>icons8-twitter</title>
    <desc>Created with Sketch.</desc>
    <defs></defs>
    <g id="Recruit-Setup" stroke="none" stroke-width="1" fill="none" fill-rule="evenodd">
        <g id="Candidate-View---Default" transform="translate(-886.000000, -137.000000)" fill="#505F6E" fill-rule="nonzero">
            <g id="Group-3" transform="translate(757.000000, 136.000000)">
                <g id="icons8-twitter" transform="translate(129.000000, 1.000000)">
                    <path d="M14,1.296875 C13.476563,1.523438 12.949219,1.691406 12.367188,1.746094 C12.949219,1.410156 13.417969,0.84375 13.648438,0.226563 C13.066406,0.5625 12.484375,0.789063 11.84375,0.902344 C11.257813,0.339844 10.5,0 9.683594,0 C8.109375,0 6.824219,1.242188 6.824219,2.765625 C6.824219,2.988281 6.824219,3.214844 6.882813,3.386719 C3.875,3.386719 1.8125,1.691406 0.414063,0 C0.121094,0.394531 0.003906,0.902344 0.003906,1.410156 C0.003906,2.367188 0.53125,3.214844 1.289063,3.722656 C0.820313,3.667969 0.355469,3.554688 0.003906,3.386719 C0.003906,3.386719 0.003906,3.386719 0.003906,3.441406 C0.003906,4.796875 0.996094,5.921875 2.28125,6.148438 C2.046875,6.203125 1.8125,6.261719 1.519531,6.261719 C1.347656,6.261719 1.171875,6.261719 0.996094,6.207031 C1.347656,7.335938 2.976563,8.632813 4.257813,8.632813 C3.265625,9.363281 2.34375,10 0.5,10 C0.265625,10 0.453125,10 0,10 C1.28125,10.789063 2.800781,11 4.375,11 C9.683594,11 12.542969,6.769531 12.542969,3.101563 C12.542969,2.988281 12.542969,2.878906 12.542969,2.765625 C13.125,2.367188 13.59375,1.863281 14,1.296875" id="Shape"></path>
                </g>
            </g>
        </g>
    </g>
</svg>