<?xml version="1.0" encoding="UTF-8"?>
<svg width="11px" height="9px" viewBox="0 0 11 9" version="1.1" xmlns="http://www.w3.org/2000/svg" xmlns:xlink="http://www.w3.org/1999/xlink">
    <!-- Generator: Sketch 51.1 (57501) - http://www.bohemiancoding.com/sketch -->
    <title>icons8-change_user</title>
    <desc>Created with Sketch.</desc>
    <defs></defs>
    <g id="Recruit-Setup" stroke="none" stroke-width="1" fill="none" fill-rule="evenodd">
        <g id="Job-View---Default" transform="translate(-373.000000, -237.000000)" fill="#637381" fill-rule="nonzero">
            <g id="icons8-change_user" transform="translate(373.000000, 237.000000)">
                <path d="M6.28571429,0 C3.68610471,0 1.57142857,2.0185545 1.57142857,4.5 L0,4.5 L1.96428571,6.75 L3.92857143,4.5 L2.35714286,4.5 C2.35714286,2.42285175 4.10965421,0.75 6.28571429,0.75 C8.46177436,0.75 10.2142857,2.42285175 10.2142857,4.5 C10.2142857,6.57714825 8.46177436,8.25 6.28571429,8.25 C5.4140625,8.25 4.61300243,7.98046875 3.96540179,7.5234375 L3.49888393,8.129883 C4.28152921,8.67773475 5.2452565,9 6.28571429,9 C8.88532386,9 11,6.9814455 11,4.5 C11,2.0185545 8.88532386,0 6.28571429,0 Z M6.28571429,2.25 C5.42327029,2.25 4.71428571,2.926758 4.71428571,3.75 C4.71428571,4.151367 4.88616071,4.5175785 5.15625,4.78710975 C4.42885064,5.17089825 3.92857143,5.9033205 3.92857143,6.75 L4.71428571,6.75 C4.71428571,5.91796875 5.4140625,5.25 6.28571429,5.25 C7.15736607,5.25 7.85714286,5.91796875 7.85714286,6.75 L8.64285714,6.75 C8.64285714,5.9033205 8.14257793,5.17089825 7.41517857,4.78710975 C7.68526786,4.5175785 7.85714286,4.151367 7.85714286,3.75 C7.85714286,2.926758 7.14815829,2.25 6.28571429,2.25 Z M6.28571429,3 C6.72460957,3 7.07142857,3.3310545 7.07142857,3.75 C7.07142857,4.1689455 6.72460957,4.5 6.28571429,4.5 C5.846819,4.5 5.5,4.1689455 5.5,3.75 C5.5,3.3310545 5.846819,3 6.28571429,3 Z" id="Shape"></path>
            </g>
        </g>
    </g>
</svg>