<svg width="19px" height="16px" viewBox="0 0 19 16" version="1.1" xmlns="http://www.w3.org/2000/svg" xmlns:xlink="http://www.w3.org/1999/xlink">
    <g id="Vendor" stroke="none" stroke-width="1" fill="none" fill-rule="evenodd">
        <g id="Vendor-Onboarding---Documents" transform="translate(-674.000000, -647.000000)" fill="#4CD964" fill-rule="nonzero">
            <g id="icons8-upload_to_cloud" transform="translate(674.000000, 647.000000)">
                <path d="M9.5,0 C7.32446319,0 5.43188506,1.51220763 4.90771544,3.59033262 C3.627442,3.78051788 2.61157256,4.80102569 2.41210938,6.12768525 C0.992676375,6.61010712 0,7.96459931 0,9.5 C0,11.4621585 1.6003415,13.0625 3.5625,13.0625 L7.125,13.0625 L7.125,11.875 L3.5625,11.875 C2.25439513,11.875 1.1875,10.8081061 1.1875,9.5 C1.1875,8.37280244 1.98998994,7.39404356 3.08935606,7.17138731 L3.57641631,7.03222656 L3.5625,6.53125 C3.5625,5.54785156 4.36035156,4.75 5.28344756,4.74536163 L5.40405244,4.75927794 L5.91894531,4.75927794 L5.99316406,4.24438506 C6.23901337,2.50024444 7.74658262,1.1875 9.5,1.1875 C10.9333493,1.1875 12.2229007,2.04101562 12.7841797,3.35839844 L12.9929196,3.86865294 L13.5124509,3.69238281 C13.7814944,3.60424775 14.0227054,3.5625 14.25,3.5625 C15.5581061,3.5625 16.625,4.62939512 16.625,5.9375 C16.625,6.21582031 16.5693359,6.498779 16.4580078,6.78173888 L16.2910156,7.23632812 L16.6992188,7.49609375 C17.3950201,7.93676787 17.8125,8.68359375 17.8125,9.5 C17.8125,10.8081061 16.7456061,11.875 15.4375,11.875 L10.6875,11.875 L10.6875,13.0625 L15.4375,13.0625 C17.3996585,13.0625 19,11.4621585 19,9.5 C19,8.43310606 18.5268561,7.43579131 17.7104498,6.76318419 C17.780029,6.48950225 17.8125,6.21118194 17.8125,5.9375 C17.8125,3.7758795 15.9013672,2.01318419 13.6469733,2.43066406 C12.8120123,0.941650687 11.2395022,0 9.5,0 Z M8.90625,7.125 L5.9375,10.6875 L8.3125,10.6875 L8.3125,15.4375 L9.5,15.4375 L9.5,10.6875 L11.875,10.6875 L8.90625,7.125 Z" id="Shape"></path>
            </g>
        </g>
    </g>
</svg>