<svg xmlns="http://www.w3.org/2000/svg" width="13" height="14" viewBox="0 0 13 14">
    <path fill="#455565" fill-rule="nonzero" d="M5 0C3.348 0 2 1.348 2 3s1.348 3 3 3 3-1.348 3-3-1.348-3-3-3zm0 6c-2.758 0-5 2.242-5 5h1c0-2.207 1.793-4 4-4 .93 0 1.773.332 2.453.86l.7-.712C7.288 6.445 6.198 6 5 6zm0-5c1.11 0 2 .89 2 2 0 1.11-.89 2-2 2-1.11 0-2-.89-2-2 0-1.11.89-2 2-2zm6.203 5.004a1.256 1.256 0 0 0-.89.379l-4.665 4.742-.695 2.922 2.922-.692.098-.101 4.648-4.566c.496-.485.504-1.301.008-1.793l-.524-.528a1.25 1.25 0 0 0-.902-.363zm.008.992c.066 0 .133.027.187.082l.524.524c.11.105.11.265 0 .375L7.375 12.44l-1.078.262.258-1.078 4.472-4.547a.25.25 0 0 1 .184-.082z"/>
</svg>
