<svg width="16" height="9" viewBox="0 0 16 9" fill="none" xmlns="http://www.w3.org/2000/svg">
<g opacity="0.5">
<path fill-rule="evenodd" clip-rule="evenodd" d="M16 9H15C15 7.07031 13.4297 5.5 11.5 5.5C10.2305 5.5 9.05859 6.20312 8.4375 7.33984L8 8.14844L7.5625 7.33984C6.94141 6.20312 5.76953 5.5 4.5 5.5C2.57031 5.5 1 7.07031 1 9H0C0 6.51953 2.01953 4.5 4.5 4.5C5.87109 4.5 7.15234 5.13672 8 6.19922C8.84766 5.13672 10.1289 4.5 11.5 4.5C13.9805 4.5 16 6.51953 16 9Z" fill="white"/>
<path fill-rule="evenodd" clip-rule="evenodd" d="M9 2.5C9 3.87891 10.1211 5 11.5 5C13.2383 5 15.0664 3.05859 15.2695 2.83984L15.5781 2.5L15.2656 2.16016C15.0625 1.9375 13.2188 0 11.5 0C10.1211 0 9 1.12109 9 2.5ZM10 2.5C10 1.67188 10.6719 1 11.5 1C12.3945 1 13.5469 1.89844 14.1914 2.5C13.5508 3.10547 12.4062 4 11.5 4C10.6719 4 10 3.32812 10 2.5Z" fill="white"/>
<path fill-rule="evenodd" clip-rule="evenodd" d="M2 2.5C2 3.87891 3.12109 5 4.5 5C5.87891 5 7 3.87891 7 2.5C7 1.12109 5.87891 0 4.5 0C3.12109 0 2 1.12109 2 2.5ZM3 2.5C3 1.67188 3.67188 1 4.5 1C5.32812 1 6 1.67188 6 2.5C6 3.32812 5.32812 4 4.5 4C3.67188 4 3 3.32812 3 2.5Z" fill="white"/>
</g>
</svg>
