<?xml version="1.0" encoding="UTF-8"?>
<svg width="13px" height="14px" viewBox="0 0 13 14" version="1.1" xmlns="http://www.w3.org/2000/svg" xmlns:xlink="http://www.w3.org/1999/xlink">
    <!-- Generator: Sketch 52.4 (67378) - http://www.bohemiancoding.com/sketch -->
    <title>icons8-video_message</title>
    <desc>Created with Sketch.</desc>
    <g id="Recruit-Setup" stroke="none" stroke-width="1" fill="none" fill-rule="evenodd">
        <g id="Job-View-Default" transform="translate(-620.000000, -291.000000)" fill="#131E3C" fill-rule="nonzero">
            <g id="icons8-video_message" transform="translate(620.000000, 291.000000)">
                <path d="M1.5,0 C0.675781,0 0,0.675781 0,1.5 L0,9.5 C0,10.324219 0.675781,11 1.5,11 L3,11 L3,13.433594 L6.652344,11 L11.5,11 C12.324219,11 13,10.324219 13,9.5 L13,1.5 C13,0.675781 12.324219,0 11.5,0 L1.5,0 Z M1.5,1 L11.5,1 C11.78125,1 12,1.21875 12,1.5 L12,9.5 C12,9.78125 11.78125,10 11.5,10 L6.347656,10 L4,11.566406 L4,10 L1.5,10 C1.21875,10 1,9.78125 1,9.5 L1,1.5 C1,1.21875 1.21875,1 1.5,1 Z M4.070313,3 C3.484375,3 3,3.484375 3,4.070313 L3,6.929688 C3,7.515625 3.484375,8 4.070313,8 L6.929688,8 C7.515625,8 8,7.515625 8,6.929688 L8,6.800781 L10,8 L10,3 L8,4.199219 L8,4.070313 C8,3.484375 7.515625,3 6.929688,3 L4.070313,3 Z M4.070313,4 L6.929688,4 C6.972656,4 7,4.027344 7,4.070313 L7,6.929688 C7,6.972656 6.972656,7 6.929688,7 L4.070313,7 C4.027344,7 4,6.972656 4,6.929688 L4,4.070313 C4,4.027344 4.027344,4 4.070313,4 Z" id="Shape"></path>
            </g>
        </g>
    </g>
</svg>