<svg xmlns="http://www.w3.org/2000/svg" width="13" height="13" viewBox="0 0 13 13">
    <path fill="#000" fill-rule="nonzero" d="M6.406 0c-.402 0-.785.16-1.062.445L.437 5.398a1.509 1.509 0 0 0 0 2.118l3.008 3.035c.024.023.051.039.078.062l1.926 1.95h.004a1.508 1.508 0 0 0 2.113.003l.004-.004 4.985-4.906h.004A1.49 1.49 0 0 0 13 6.594V3.508c0-.82-.676-1.5-1.5-1.5H11V1.5C11 .676 10.324 0 9.5 0H6.406zm0 1H9.5c.281 0 .5.219.5.5v3.082a.506.506 0 0 1-.148.356L4.859 9.843a.484.484 0 0 1-.66.031L3.152 8.82l-.007.008-1.997-2.02a.493.493 0 0 1-.003-.706l4.91-4.954A.49.49 0 0 1 6.406 1zm2.055 1c-.277 0-.5.223-.5.5s.223.5.5.5.5-.223.5-.5-.223-.5-.5-.5zM11 3.008h.5c.281 0 .5.219.5.5v3.086a.497.497 0 0 1-.148.351l-4.985 4.91a.501.501 0 0 1-.71 0l-1.009-1.02c.149-.07.29-.16.415-.276l4.992-4.91h.004c.28-.282.441-.665.441-1.067V3.008z"/>
</svg>
