<?xml version="1.0" encoding="UTF-8"?>
<svg width="20px" height="20px" viewBox="0 0 20 20" version="1.1" xmlns="http://www.w3.org/2000/svg" xmlns:xlink="http://www.w3.org/1999/xlink">
    <!-- Generator: Sketch 49.3 (51167) - http://www.bohemiancoding.com/sketch -->
    <title>Shape</title>
    <desc>Created with Sketch.</desc>
    <defs></defs>
    <g id="Recruit-Setup" stroke="none" stroke-width="1" fill="none" fill-rule="evenodd">
        <g id="Job-View-Default" transform="translate(-361.000000, -486.000000)" fill="#FFFFFF" fill-rule="nonzero">
            <g id="icons8-linkedin" transform="translate(361.000000, 486.000000)">
                <path d="M18.1673175,0 L1.8326825,0 C0.833333333,0 0,0.833333333 0,1.8326825 L0,18.1673175 C0,19.1666667 0.833333333,20 1.8326825,20 L18.1673175,20 C19.1666667,20 20,19.1666667 20,18.1673175 L20,1.8326825 C20,0.833333333 19.1666667,0 18.1673175,0 Z M5.83333333,16.6666667 L2.5,16.6666667 L2.5,7.5 L5.83333333,7.5 L5.83333333,16.6666667 Z M4.16666667,6.41601583 C3.1673175,6.41601583 2.5,5.74869833 2.5,4.915365 C2.5,4.00065083 3.1673175,3.33333333 4.16666667,3.33333333 C5.16601583,3.33333333 5.83333333,4.00065083 5.83333333,4.83398417 C5.83333333,5.74869833 5.16601583,6.41601583 4.16666667,6.41601583 Z M17.5,16.6666667 L14.1666667,16.6666667 L14.1666667,11.6666667 C14.1666667,10.3320317 13.2486983,10 13.0013025,10 C12.7506508,10 11.6666667,10.1660158 11.6666667,11.6666667 C11.6666667,11.8326825 11.6666667,16.6666667 11.6666667,16.6666667 L8.33333333,16.6666667 L8.33333333,7.5 L11.6666667,7.5 L11.6666667,8.83463583 C12.1679692,8.0826825 13.0013025,7.5 14.5833333,7.5 C16.165365,7.5 17.5,8.75 17.5,11.6666667 L17.5,16.6666667 Z" id="Shape"></path>
            </g>
        </g>
    </g>
</svg>