<svg width="152px" height="35px" viewBox="0 0 152 35" version="1.1" xmlns="http://www.w3.org/2000/svg" xmlns:xlink="http://www.w3.org/1999/xlink">
    <g id="Recruit-Setup" stroke="none" stroke-width="1" fill="none" fill-rule="evenodd">
        <g id="Job-View-Default" transform="translate(-190.000000, -33.000000)">
            <g id="Group-7" transform="translate(190.000000, 33.000000)">
                <path d="M133.284048,0.989461955 L141.815493,15.7632958 C138.802131,17.507227 135.305599,18.5115002 131.5701,18.5115002 C127.832253,18.5115002 124.330483,17.5063239 121.31387,15.7569739 L129.848205,0.98151447 C130.194463,0.394123035 130.833874,0 131.565404,0 C132.300185,0 132.940499,0.397916153 133.284048,0.989461955 Z M150.794399,31.4279886 C151.127832,32.0238693 151.152939,32.7754486 150.784104,33.410525 C150.419242,34.0441563 149.754543,34.4039607 149.068531,34.4039607 L132.005821,34.3974582 C132.004195,30.9137501 132.885282,27.3848859 134.755832,24.1522461 C136.624033,20.9147295 139.2458,18.3888741 142.269276,16.6505422 L150.794399,31.4279886 Z M120.782057,16.6190052 C123.801921,18.3652845 126.418088,20.8989068 128.275091,24.1443709 C130.136247,27.3813456 131.005413,30.9136417 130.992905,34.3989754 L113.936382,34.3973498 C113.244228,34.3904861 112.58278,33.9884155 112.216293,33.3520748 C111.852695,32.7150116 111.875635,31.9663223 112.211416,31.3745959 L120.782057,16.6190052 Z" id="Combined-Shape" fill="#72BF44"></path>
                <path d="M8.46985214,6.01420553 L8.46985214,0.271785944 L11.6036902,0.271785944 L11.6036902,16.0312886 L8.62717623,16.0312886 L8.62717623,14.5745506 L8.58328443,14.5745506 C8.2155326,15.1930095 7.7338066,15.6380687 7.13774518,15.9102701 C6.54204501,16.1819296 5.8692181,16.3184818 5.11908384,16.3184818 C4.26563226,16.3184818 3.515498,16.1526684 2.86868105,15.821764 C2.2211416,15.490679 1.68793756,15.0420073 1.2687077,14.4755683 C0.849477834,13.9091293 0.532842783,13.2579774 0.31970567,12.5224737 C0.106026683,11.7866088 0,11.0214827 0,10.2267341 C0,9.46196927 0.106026683,8.72231124 0.31970567,8.00902441 C0.533204033,7.29483445 0.849477834,6.66589935 1.26906895,6.12149658 C1.68884069,5.57727445 2.21445848,5.13962086 2.84736733,4.80835522 C3.48009556,4.47727019 4.21596048,4.31163737 5.05496208,4.31163737 C5.73194335,4.31163737 6.37514781,4.45523398 6.9863817,4.74314971 C7.59689309,5.03034294 8.07898034,5.45408842 8.43210158,6.01420553 L8.46985214,6.01420553 Z M8.45106717,11.6617972 C8.53903139,11.2205311 8.58328443,10.7651763 8.58328443,10.2948296 C8.58328443,9.82448299 8.53903139,9.37219881 8.45106717,8.93833835 C8.36256108,8.50447789 8.2119201,8.12227608 7.99878299,7.79191355 C7.78528463,7.46082853 7.50965138,7.19260089 7.17134137,6.98632751 C6.83303136,6.78077664 6.40639588,6.67782057 5.89143494,6.67782057 C5.37665462,6.67782057 4.94297478,6.78077664 4.58967292,6.98632751 C4.23637107,7.19260089 3.9533322,7.4642604 3.74019509,7.80293166 C3.52705798,8.14124167 3.37280451,8.5265141 3.27671218,8.96037456 C3.1817036,9.39423502 3.13365744,9.8465192 3.13365744,10.3168658 C3.13365744,10.7577707 3.18495485,11.1984949 3.28791091,11.6399416 C3.3910476,12.0812076 3.5564998,12.4744276 3.78462876,12.8197819 C4.01221585,13.1651363 4.29940908,13.444382 4.64476345,13.6573385 C4.99102095,13.8706563 5.40627707,13.9775861 5.89143494,13.9775861 C6.40639588,13.9775861 6.83610197,13.8744494 7.18235947,13.6685373 C7.52753322,13.463167 7.80370834,13.1869919 8.0098011,12.8418181 C8.2155326,12.4966444 8.36256108,12.1032439 8.45106717,11.6617972 Z M14.0585059,2.85177458 L14.0585059,0.271731757 L17.192344,0.271731757 L17.192344,2.85177458 L14.0585059,2.85177458 Z M14.0585059,16.0290669 L14.0585059,4.62279949 L17.192344,4.62279949 L17.192344,16.0290669 L14.0585059,16.0290669 Z M36.0122789,5.23865737 C36.3796694,5.56197554 36.6668627,5.98499852 36.8729554,6.5075457 C37.0785063,7.02973162 37.1814624,7.65830548 37.1814624,8.39398977 L37.1814624,16.0291753 L34.0479856,16.0291753 L34.0479856,9.56010266 C34.0479856,9.17772023 34.033355,8.81719338 34.0033713,8.47852212 C33.9741101,8.14003148 33.8931902,7.84543264 33.7611536,7.59526747 C33.6285751,7.3451023 33.4338617,7.14623454 33.1766521,6.99902543 C32.9189007,6.85199695 32.5699339,6.7784827 32.129029,6.7784827 C31.6875823,6.7784827 31.3304874,6.86283443 31.0588278,7.03207974 C30.7866265,7.20168631 30.5734894,7.42222904 30.4188746,7.69479167 C30.2646212,7.96717367 30.1618457,8.27640311 30.1098258,8.62211873 C30.058709,8.96783436 30.0326991,9.31752372 30.0326991,9.67064496 L30.0326991,16.0291753 L26.898861,16.0291753 L26.898861,9.62621129 C26.898861,9.28790128 26.8918167,8.95284251 26.8768248,8.62175749 C26.8621942,8.29067246 26.7996981,7.98559739 26.6896976,7.70580977 C26.5791553,7.42620278 26.3954601,7.20168631 26.1384311,7.03207974 C25.8804991,6.86283443 25.5019098,6.7784827 25.0021213,6.7784827 C24.8549122,6.7784827 24.6603795,6.81189827 24.417078,6.87782627 C24.1748603,6.94411553 23.9395064,7.0691078 23.7117387,7.25316434 C23.4836097,7.43722088 23.2883544,7.70219728 23.1272372,8.04827415 C22.9652169,8.39398977 22.8842971,8.8466352 22.8842971,9.40602981 L22.8842971,16.0291753 L19.7502784,16.0291753 L19.7502784,4.61712787 L22.7080074,4.61712787 L22.7080074,6.16164945 L22.7518992,6.16164945 C23.1642653,5.57461926 23.6606219,5.11926446 24.2413302,4.79612692 C24.8223998,4.47335064 25.4878211,4.31151093 26.238136,4.31151093 C26.9586478,4.31151093 27.6170247,4.45131443 28.2125443,4.73019892 C28.8078832,5.00890279 29.2601674,5.50110502 29.5695774,6.20572187 C29.9077068,5.7066559 30.3677579,5.26611232 30.9482855,4.88427177 C31.5295357,4.50243121 32.2171739,4.31151093 33.0115612,4.31151093 C33.6143057,4.31151093 34.1731584,4.38502517 34.6883,4.53223428 C35.2028997,4.67944339 35.6441658,4.91461671 36.0122789,5.23865737 Z M49.235197,6.38481123 C49.6984993,7.01717821 50.0331968,7.73769003 50.2394702,8.54616606 C50.4452017,9.35518397 50.5185353,10.2005074 50.459471,11.082859 L42.230211,11.082859 C42.2742834,12.099234 42.5314929,12.836002 43.0027427,13.2926212 C43.4730893,13.7492404 44.1497094,13.97755 45.0322415,13.97755 C45.6646085,13.97755 46.2088306,13.8198646 46.6650885,13.5050358 C47.1204433,13.1898458 47.4005922,12.8567739 47.5037289,12.5052783 L50.2613258,12.5052783 C49.8200597,13.8715233 49.143259,14.8492446 48.2312851,15.4368167 C47.3194917,16.0243887 46.2164169,16.3184457 44.9218798,16.3184457 C44.0248977,16.3184457 43.2158798,16.1744878 42.4955486,15.8883784 C41.7741337,15.6011851 41.1636223,15.1929734 40.6634725,14.6630206 C40.1631422,14.1332484 39.7769667,13.5008814 39.5047653,12.7646553 C39.2325639,12.0291516 39.0965535,11.2197725 39.0965535,10.3372403 C39.0965535,9.48378873 39.2359958,8.68940143 39.5157834,7.95353651 C39.7953904,7.21767159 40.1931259,6.58133087 40.7073643,6.0441531 C41.2228672,5.50733657 41.836991,5.08449421 42.5502779,4.77526478 C43.263926,4.46621596 44.0543395,4.31160124 44.9218798,4.31160124 C45.8925568,4.31160124 46.7382415,4.49927028 47.4591146,4.87406647 C48.1799877,5.24904329 48.7718947,5.7528055 49.235197,6.38481123 Z M42.230211,9.09454257 L47.3267167,9.09454257 C47.179327,8.30358712 46.9183243,7.70301009 46.5435281,7.29281146 C46.1683707,6.88279345 45.5984998,6.67778445 44.8339156,6.67778445 C44.3335853,6.67778445 43.9181485,6.7623168 43.5870635,6.93047837 C43.2559785,7.09900119 42.9917246,7.30726143 42.7926762,7.55652348 C42.5945309,7.80524365 42.4545468,8.0691363 42.3738076,8.3472983 C42.2927071,8.62564092 42.2452028,8.87472234 42.230211,9.09454257 Z M63.0114588,16.0291211 L59.8778014,16.0291211 L59.8778014,9.58226531 C59.8778014,8.64066889 59.730231,7.93785829 59.4354516,7.47419475 C59.1406721,7.01016997 58.617583,6.77842852 57.8660038,6.77842852 C57.0118297,6.77842852 56.392829,7.03220618 56.009724,7.54030338 C55.6266191,8.04785871 55.4347957,8.88342845 55.4347957,10.0462901 L55.4347957,16.0291211 L52.3009576,16.0291211 L52.3009576,4.61725431 L55.2837935,4.61725431 L55.2837935,6.20584831 L55.3500827,6.20584831 C55.747457,5.54512325 56.2625986,5.06411975 56.8955074,4.76319905 C57.5285969,4.46227834 58.1761363,4.31163737 58.8381258,4.31163737 C59.6774886,4.31163737 60.3658492,4.42579216 60.903027,4.65392112 C61.4403854,4.88186946 61.863589,5.19814326 62.1728185,5.60292315 C62.4816867,6.00716117 62.6987975,6.5000859 62.8239704,7.08079422 C62.9491433,7.66204441 63.0114588,8.30597137 63.0114588,9.01203321 L63.0114588,16.0291211 Z M75.4014624,12.3698097 C75.4014624,13.1194021 75.2511827,13.7483372 74.9500814,14.255712 C74.6487994,14.7630867 74.2555795,15.1712984 73.7700604,15.479986 C73.285625,15.7892154 72.730746,16.0057844 72.1061459,16.1309573 C71.4815458,16.2557689 70.8457469,16.3184457 70.1991106,16.3184457 C69.5380243,16.3184457 68.8910267,16.2519758 68.2593822,16.1197586 C67.6270153,15.9877219 67.0652725,15.7671792 66.5727091,15.4588529 C66.0805068,15.1505266 65.6760882,14.7423148 65.3603563,14.2356626 C65.0446243,13.7282879 64.8714053,13.0926697 64.8423247,12.3288079 L67.8249799,12.3288079 C67.8249799,12.6660342 67.894701,12.9553949 68.0339627,13.197432 C68.1730436,13.4391078 68.3529458,13.6370725 68.572766,13.7913259 C68.7925863,13.9450375 69.0458221,14.0586504 69.3313897,14.1319841 C69.6176798,14.2049564 69.9146267,14.2419845 70.2225918,14.2419845 C70.442412,14.2419845 70.6732504,14.2159745 70.9151068,14.1648577 C71.1571439,14.1128378 71.377506,14.0322792 71.57529,13.9217369 C71.7728934,13.8117365 71.9381649,13.6645274 72.070021,13.4804709 C72.2015157,13.2964143 72.267805,13.0652147 72.267805,12.7850659 C72.267805,12.3147192 71.9555049,11.961598 71.3316273,11.7264247 C70.7072078,11.4908901 69.8367775,11.2551749 68.7203364,11.0201822 C68.264801,10.9170455 67.8202837,10.796027 67.3869651,10.6558622 C66.9534659,10.51642 66.5680128,10.3327247 66.2304253,10.1044151 C65.8924765,9.87646677 65.6206364,9.58927354 65.4150855,9.24409979 C65.209354,8.8978423 65.1067592,8.47518056 65.1067592,7.97485022 C65.1067592,7.23898531 65.249814,6.63606015 65.5370072,6.16517163 C65.8232973,5.69446373 66.2024285,5.32291878 66.6727751,5.0507174 C67.1433024,4.77851602 67.6725327,4.58741512 68.2608272,4.47723407 C68.8493024,4.36705302 69.452047,4.31160124 70.0701446,4.31160124 C70.6875197,4.31160124 71.287013,4.37030426 71.8680826,4.48825217 C72.4486103,4.60547758 72.9670031,4.80416472 73.423261,5.08322984 C73.8786158,5.36265621 74.257747,5.73329804 74.5590289,6.19623907 C74.8603109,6.65918011 75.0403937,7.24386217 75.099458,7.94920152 L72.1168027,7.94920152 C72.0725497,7.34952761 71.8453239,6.94366397 71.4338609,6.7316106 C71.0231204,6.51973786 70.5385044,6.41334993 69.9803741,6.41334993 C69.8042651,6.41334993 69.6135254,6.42490991 69.4077939,6.44694612 C69.2020624,6.4688017 69.0149352,6.51648662 68.8460512,6.59000086 C68.6769865,6.6635151 68.5337511,6.77008366 68.4167063,6.90988715 C68.2991197,7.0493294 68.2404167,7.23735968 68.2404167,7.47253301 C68.2404167,7.75177875 68.3430115,7.97990771 68.548743,8.15601677 C68.7544745,8.33302895 69.0223409,8.47608369 69.3530646,8.58626474 C69.6837884,8.69698766 70.0621971,8.79633123 70.4881101,8.88447607 C70.9140231,8.97244029 71.3475223,9.06799074 71.7878852,9.17076618 C72.2434206,9.27372224 72.6877573,9.39889514 73.1210759,9.54592362 C73.5547558,9.69313273 73.9400282,9.88820738 74.2777963,10.1304251 C74.6157451,10.3735459 74.8875852,10.6746472 75.0933167,11.0349934 C75.2988676,11.3953396 75.4014624,11.8403988 75.4014624,12.3698097 Z M77.331148,2.85177458 L77.331148,0.271731757 L80.4651667,0.271731757 L80.4651667,2.85177458 L77.331148,2.85177458 Z M77.331148,16.0290669 L77.331148,4.62279949 L80.4651667,4.62279949 L80.4651667,16.0290669 L77.331148,16.0290669 Z M83.7504044,14.6963097 C83.2358047,14.1739432 82.8395142,13.5451887 82.5602684,12.8091431 C82.2812033,12.0732782 82.1417611,11.2498103 82.1417611,10.3372945 C82.1417611,9.42495928 82.2812033,8.59751765 82.5602684,7.8540665 C82.8395142,7.11115723 83.2358047,6.478429 83.7504044,5.95606245 C84.2648235,5.43369589 84.8821986,5.02909663 85.6019879,4.74226465 C86.3221385,4.45525204 87.1302533,4.31165543 88.0268741,4.31165543 C88.9229531,4.31165543 89.7352223,4.45525204 90.4624172,4.74226465 C91.1899734,5.02909663 91.8105998,5.43369589 92.3250188,5.95606245 C92.8392573,6.478429 93.2360897,7.11115723 93.5155161,7.8540665 C93.7947618,8.59751765 93.9343847,9.42495928 93.9343847,10.3372945 C93.9343847,11.2498103 93.7947618,12.0732782 93.5155161,12.8091431 C93.2360897,13.5451887 92.8392573,14.1739432 92.3250188,14.6963097 C91.8105998,15.2184956 91.1899734,15.6193018 90.4624172,15.89927 C89.7352223,16.1785158 88.9229531,16.3184999 88.0268741,16.3184999 C87.1302533,16.3184999 86.3221385,16.1785158 85.6019879,15.89927 C84.8821986,15.6193018 84.2648235,15.2184956 83.7504044,14.6963097 Z M85.4072745,8.99380819 C85.3191297,9.43489364 85.2755991,9.88320407 85.2755991,10.3389201 C85.2755991,10.7942749 85.3191297,11.2395147 85.4072745,11.673014 C85.4954194,12.1066938 85.6460603,12.4966625 85.8584749,12.8418362 C86.0716121,13.18701 86.3539284,13.4631851 86.7059659,13.6685553 C87.0580034,13.8744675 87.4983663,13.9776041 88.0268741,13.9776041 C88.5548401,13.9776041 88.9993574,13.8744675 89.3588005,13.6685553 C89.7182436,13.4631851 90.0045337,13.18701 90.2173095,12.8418362 C90.4299048,12.4966625 90.5801845,12.1066938 90.6683293,11.673014 C90.7562936,11.2395147 90.8005466,10.7942749 90.8005466,10.3389201 C90.8005466,9.88320407 90.7562936,9.43489364 90.6683293,8.99380819 C90.5801845,8.55254211 90.4299048,8.16311532 90.2173095,7.82498593 C90.0045337,7.48631467 89.7182436,7.2105008 89.3588005,6.99754431 C88.9993574,6.78422657 88.5548401,6.67783864 88.0268741,6.67783864 C87.4983663,6.67783864 87.0580034,6.78422657 86.7059659,6.99754431 C86.3539284,7.2105008 86.0716121,7.48631467 85.8584749,7.82498593 C85.6460603,8.16311532 85.4954194,8.55254211 85.4072745,8.99380819 Z M98.6538184,10.0463443 L98.6538184,16.0291753 L95.5201609,16.0291753 L95.5201609,4.61712787 L98.5028161,4.61712787 L98.5028161,6.20572187 L98.5689248,6.20572187 C98.9659378,5.54499682 99.4814406,5.06417394 100.11453,4.76325323 C100.747439,4.46233253 101.394978,4.31151093 102.057329,4.31151093 C102.896331,4.31151093 103.584691,4.42584635 104.121869,4.65379468 C104.659047,4.88174302 105.08225,5.19819745 105.391299,5.60297734 C105.700529,6.00703473 105.917459,6.49995946 106.042812,7.08066778 C106.167624,7.6620986 106.230301,8.30584493 106.230301,9.01190678 L106.230301,16.0291753 L103.096643,16.0291753 L103.096643,9.58213887 C103.096643,8.64054245 102.948892,7.93791248 102.654294,7.47424894 C102.359514,7.01004353 101.836425,6.7784827 101.085207,6.7784827 C100.230672,6.7784827 99.611671,7.03226037 99.2285661,7.54017695 C98.8449193,8.0479129 98.6538184,8.88348264 98.6538184,10.0463443 Z M69.6373859,24.374848 L69.6373859,18.6318865 L72.771224,18.6318865 L72.771224,34.3921117 L69.79471,34.3921117 L69.79471,32.9353737 L69.7508182,32.9353737 C69.3830664,33.5534713 68.9009791,33.9988918 68.305279,34.2710931 C67.7093982,34.5423914 67.0363906,34.6793049 66.286437,34.6793049 C65.4331661,34.6793049 64.6830318,34.5133108 64.0360342,34.1820452 C63.3886754,33.8505989 62.8552907,33.4022885 62.4362415,32.8362107 C62.0170116,32.2699524 61.7007378,31.6182586 61.4874201,30.8829355 C61.2741024,30.1465288 61.1673532,29.3823058 61.1673532,28.5870153 C61.1673532,27.8224311 61.2741024,27.0825924 61.4874201,26.3687637 C61.7007378,25.6554769 62.0170116,25.0263612 62.4366027,24.4819584 C62.8561939,23.9377363 63.3819923,23.5002633 64.0149011,23.1689977 C64.6476294,22.8379126 65.3834943,22.6719186 66.2224959,22.6719186 C66.8991159,22.6719186 67.5426816,22.8156958 68.1539155,23.1034309 C68.7642463,23.3909854 69.2465141,23.8149115 69.599816,24.374848 L69.6373859,24.374848 Z M69.618601,30.0226202 C69.7065652,29.5811735 69.7508182,29.1258187 69.7508182,28.6554721 C69.7508182,28.1849448 69.7065652,27.7328413 69.618601,27.2986195 C69.5304561,26.8651203 69.3794539,26.4830991 69.1661362,26.1518335 C68.9526378,25.8212903 68.6770045,25.5527015 68.3386945,25.34697 C68.0005651,25.1408772 67.573749,25.0379211 67.0589687,25.0379211 C66.5441884,25.0379211 66.110328,25.1408772 65.7570261,25.34697 C65.4039049,25.5527015 65.120866,25.8245416 64.9075483,26.162671 C64.6944111,26.5008004 64.5403383,26.8871565 64.4444266,27.3204751 C64.3492374,27.7546968 64.3011912,28.206981 64.3011912,28.6775083 C64.3011912,29.1178712 64.3521274,29.5593179 64.4552641,30.0004034 C64.5584008,30.4418501 64.7240336,30.83507 64.9521626,31.180605 C65.1797496,31.5255981 65.4669429,31.8050245 65.8121166,32.0181616 C66.1581935,32.2311181 66.5736302,32.3384092 67.0589687,32.3384092 C67.573749,32.3384092 68.0036358,32.2350918 68.3497126,32.0289991 C68.6952476,31.8236288 68.9710615,31.547815 69.1773349,31.2024606 C69.3830664,30.8569256 69.5304561,30.4637057 69.618601,30.0226202 Z M85.3699936,31.8536848 C85.3699936,32.3688263 85.3990742,32.8612092 85.4581384,33.3322783 C85.5170221,33.8029862 85.6199781,34.1561075 85.7670066,34.3921839 L82.5950567,34.3896552 C82.5358118,34.2135461 82.4883076,34.0332827 82.4518214,33.8494068 C82.4147933,33.6658921 82.3891446,33.4780425 82.3746946,33.2869416 C81.8743643,33.8029862 81.2851666,34.1636937 80.6081853,34.3699671 C79.9312041,34.5753373 79.2394116,34.6793772 78.5328079,34.6793772 C77.9876826,34.6793772 77.4804885,34.6120042 77.0092387,34.4801481 C76.537989,34.3481115 76.1259841,34.1418381 75.7728629,33.862773 C75.4197416,33.5833466 75.1433859,33.2302254 74.9448794,32.8037706 C74.7463728,32.377677 74.6472099,31.8703023 74.6472099,31.2818271 C74.6472099,30.6346489 74.7608228,30.1019867 74.9889518,29.6825762 C75.2167195,29.2633464 75.5107765,28.9291907 75.8711227,28.6788449 C76.2312883,28.429041 76.6436544,28.2408301 77.1069567,28.1160184 C77.570259,27.9908455 78.0369931,27.891502 78.507701,27.8185296 C78.9782283,27.7446541 79.4418918,27.6863123 79.8976079,27.6424205 C80.3535046,27.5983481 80.7581038,27.531517 81.1110444,27.4431915 C81.4638044,27.3552273 81.7434114,27.2262613 81.9489623,27.057016 C82.1552357,26.8879513 82.2507861,26.6417599 82.2361555,26.3177192 C82.2361555,25.9795898 82.181065,25.7111815 82.0707033,25.5130363 C81.960161,25.3143491 81.8129519,25.159915 81.6296179,25.049734 C81.4455613,24.9395529 81.2326048,24.8656775 80.9896646,24.8290106 C80.7470857,24.7925245 80.4859024,24.7735589 80.2066567,24.7735589 C79.5892816,24.7735589 79.1035818,24.9057761 78.7508218,25.1687657 C78.39752,25.4321164 78.1917885,25.8708538 78.1332661,26.4853389 L74.9996086,26.4853389 C75.0436811,25.7505577 75.2273764,25.1409495 75.5508751,24.6557916 C75.8747352,24.1711756 76.2863788,23.7817488 76.7867091,23.4876918 C77.2864976,23.1939961 77.8495047,22.9846521 78.4748273,22.8594792 C79.0996081,22.7348482 79.7285432,22.6718102 80.361452,22.6718102 C80.935116,22.6718102 81.5160049,22.712812 82.1044801,22.7939125 C82.6927747,22.8750129 83.2295912,23.0328789 83.7149297,23.2682329 C84.2002682,23.5032256 84.5974619,23.8308787 84.9066913,24.2502892 C85.2155595,24.6695191 85.3699936,25.2251206 85.3699936,25.9163712 L85.3699936,31.8536848 Z M82.2361555,29.9769944 L82.2361555,28.8072691 C82.1041189,28.925217 81.9384861,29.0173356 81.7397989,29.0834442 C81.5411118,29.1495528 81.3281553,29.2053658 81.1003876,29.2494383 C80.8722586,29.2933301 80.6331115,29.329455 80.3833076,29.3592581 C80.1336843,29.3885193 79.8835192,29.4255473 79.633354,29.4694391 C79.3981807,29.5135115 79.1664392,29.5727564 78.9388521,29.6455482 C78.7105425,29.7197849 78.5123973,29.8187672 78.3433326,29.9437595 C78.1742679,30.0689324 78.0382575,30.2271596 77.9351208,30.4184411 C77.8319841,30.609542 77.781048,30.8524822 77.781048,31.1465392 C77.781048,31.4259656 77.8319841,31.6609583 77.9351208,31.8520592 C78.0382575,32.0431601 78.1775191,32.1941623 78.3545313,32.304524 C78.5306404,32.4145244 78.7365525,32.4923736 78.9719064,32.536446 C79.2070798,32.5805185 79.4498393,32.6025547 79.6998239,32.6025547 C80.317199,32.6025547 80.7951319,32.4995986 81.1332613,32.2935059 C81.4717519,32.0874131 81.7217364,31.8410411 81.8830343,31.5547509 C82.0450546,31.2675577 82.1442176,30.9772939 82.181065,30.6832369 C82.2177318,30.3891799 82.2361555,30.153826 82.2361555,29.9769944 Z M91.7656242,19.5633138 L91.7656242,22.9738688 L94.0600994,22.9738688 L94.0600994,25.0756175 L91.7656242,25.0756175 L91.7656242,30.7248348 C91.7656242,31.2542457 91.8537691,31.6073669 92.0307812,31.7836566 C92.2068903,31.9606688 92.5600115,32.0488136 93.0896031,32.0488136 C93.2660734,32.0488136 93.4353187,32.0406855 93.5967972,32.0265968 C93.7588175,32.0116049 93.913071,31.9897493 94.0600994,31.9597657 L94.0600994,34.3897094 C93.7954843,34.4346849 93.5012467,34.4650299 93.1777479,34.4800217 C92.8542491,34.4950136 92.538156,34.5027804 92.2289265,34.5027804 C91.743588,34.5027804 91.2838982,34.4691842 90.8502184,34.4030756 C90.4159967,34.3371476 90.0336142,34.2087234 89.7023486,34.0167194 C89.3712636,33.8256185 89.1100803,33.5534171 88.9189794,33.2002959 C88.7275172,32.8471747 88.6319668,32.3829693 88.6319668,31.8094859 L88.6319668,25.0756175 L86.7346852,25.0756175 L86.7346852,22.9738688 L88.6319668,22.9738688 L88.6319668,19.5633138 L91.7656242,19.5633138 Z M106.328651,33.3322603 C106.387173,33.8029682 106.49031,34.1560894 106.637158,34.3921659 L103.465389,34.3896371 C103.406324,34.2135281 103.358459,34.0334453 103.322153,33.8495693 C103.285306,33.6660547 103.259477,33.4780244 103.245207,33.2869235 C102.744516,33.8029682 102.155679,34.1638563 101.478337,34.369949 C100.801175,34.5753193 100.109744,34.6793591 99.4035011,34.6793591 C98.8583758,34.6793591 98.3506398,34.6119861 97.8799319,34.4801301 C97.4086822,34.3480934 96.9964967,34.1418201 96.6433754,33.8627549 C96.2900736,33.5833286 96.0140791,33.2302073 95.8150307,32.8037525 C95.6167048,32.3776589 95.5173612,31.8702842 95.5173612,31.281809 C95.5173612,30.6346308 95.6309742,30.1019686 95.8591031,29.6827388 C96.0870515,29.2633283 96.3814697,28.9291726 96.7416353,28.6788269 C97.1018009,28.4290229 97.514167,28.2409926 97.9774693,28.1160004 C98.4407716,27.9908275 98.9071445,27.8916645 99.3783942,27.8185115 C99.8487409,27.744636 100.312043,27.6862943 100.768301,27.6424025 C101.223656,27.5983301 101.628255,27.5314989 101.981015,27.4431735 C102.334498,27.3552093 102.613382,27.2262432 102.819475,27.0571785 C103.025748,26.8881139 103.120937,26.6417418 103.106668,26.3177011 C103.106668,25.9795717 103.051216,25.7111635 102.940674,25.5130182 C102.830674,25.3143311 102.683464,25.159897 102.499769,25.0497159 C102.316255,24.9395349 102.102937,24.8656594 101.859997,24.8289926 C101.617779,24.7925064 101.356596,24.7735408 101.07735,24.7735408 C100.459433,24.7735408 99.9740944,24.9057581 99.6213344,25.1689282 C99.2682132,25.4320984 99.0624817,25.8708357 99.0039593,26.4853208 L95.8695793,26.4853208 C95.9138324,25.7505397 96.0975277,25.1409314 96.4213877,24.6557735 C96.7448865,24.1711575 97.1568914,23.7817307 97.6568605,23.4876738 C98.1566489,23.1941587 98.719656,22.9846341 99.3453399,22.8596418 C99.9703013,22.7348301 100.598875,22.6717921 101.231603,22.6717921 C101.805267,22.6717921 102.386337,22.7127939 102.974451,22.7938944 C103.562926,22.8749949 104.099743,23.0328608 104.585081,23.2682148 C105.0706,23.5032075 105.467613,23.8308606 105.776843,24.2502711 C106.085891,24.669501 106.240145,25.2251025 106.240145,25.9163531 L106.240145,31.8536667 C106.240145,32.3688083 106.269587,32.8611911 106.328651,33.3322603 Z M103.106668,29.9769764 L103.106668,28.807251 C102.97409,28.9251989 102.808637,29.0173175 102.610311,29.0836067 C102.411263,29.1495347 102.198126,29.2053478 101.970539,29.2494202 C101.742771,29.293312 101.503805,29.3294369 101.253459,29.35924 C101.003836,29.3885012 100.754032,29.4255292 100.503867,29.469421 C100.268693,29.5134935 100.037132,29.5727384 99.8091841,29.6455301 C99.5812357,29.7197668 99.3830905,29.8187492 99.2138452,29.9437414 C99.0447805,30.0689143 98.9084088,30.2271415 98.8056334,30.4184231 C98.7026773,30.609524 98.6511993,30.8524642 98.6511993,31.1465211 C98.6511993,31.4259475 98.7026773,31.6609402 98.8056334,31.8520411 C98.9084088,32.043142 99.0478511,32.1943249 99.2248633,32.3045059 C99.4009723,32.4145063 99.6070651,32.4923556 99.842419,32.536428 C100.077592,32.580681 100.31981,32.6025366 100.569975,32.6025366 C101.18735,32.6025366 101.665825,32.4995805 102.003954,32.2934878 C102.342084,32.087395 102.592068,31.841023 102.753547,31.5547329 C102.915206,31.2677203 103.01473,30.9772758 103.051216,30.6832188 C103.087883,30.3891619 103.106668,30.1538079 103.106668,29.9769764 Z" id="Combined-Shape" fill="#465565"></path>
            </g>
        </g>
    </g>
</svg>