<svg width="46px" height="46px" viewBox="0 0 46 46" version="1.1" xmlns="http://www.w3.org/2000/svg" xmlns:xlink="http://www.w3.org/1999/xlink">
    <g id="Recruit-Setup" stroke="none" stroke-width="1" fill="none" fill-rule="evenodd">
        <g id="Job-View-Default" transform="translate(-663.000000, -393.000000)" fill="#637381" fill-rule="nonzero">
            <g id="icons8-submit_resume_filled" transform="translate(663.000000, 393.000000)">
                <path d="M0,0 L0,46 L36,46 L36,31.46875 L45.5625,23.5 L35.980469,15.515625 L36,15.429688 L36,0 L0,0 Z M10.40625,6 C10.953125,6 11.363281,6.265625 11.527344,6.550781 C13.042969,6.550781 12.648438,8.664063 12.421875,9.359375 C12.503906,9.445313 12.609375,9.679688 12.609375,9.996094 C12.609375,10.445313 12.183594,10.71875 12.183594,10.71875 C12.101563,11.296875 11.691406,11.773438 11.441406,11.890625 C11.441406,12.253906 11.40625,12.53125 11.441406,12.929688 C11.875,14.089844 14.753906,13.761719 14.890625,16 L6,16 C6.132813,13.761719 9.011719,14.089844 9.441406,12.929688 C9.480469,12.53125 9.441406,12.253906 9.441406,11.890625 C9.261719,11.796875 8.761719,11.289063 8.683594,10.71875 C8.683594,10.71875 8.277344,10.523438 8.253906,9.910156 C8.242188,9.589844 8.46875,9.359375 8.46875,9.359375 C8.046875,7.730469 8.226563,6.039063 10.40625,6 Z M21.003906,8 L29.003906,8 C29.554688,8 30.003906,8.445313 30.003906,9 C30.003906,9.550781 29.558594,10 29.003906,10 L21.003906,10 C20.453125,10 20.003906,9.550781 20.003906,9 C20.003906,8.445313 20.453125,8 21.003906,8 Z M21.003906,13 L29.003906,13 C29.554688,13 30.003906,13.445313 30.003906,14 C30.003906,14.550781 29.558594,15 29.003906,15 L21.003906,15 C20.453125,15 20.003906,14.550781 20.003906,14 C20.003906,13.445313 20.453125,13 21.003906,13 Z M36,18.136719 L42.4375,23.5 L36,28.863281 L36,25 L29,25 L29,22 L36,22 L36,18.136719 Z M7.003906,23 L21.003906,23 C21.554688,23 22.003906,23.445313 22.003906,24 C22.003906,24.550781 21.558594,25 21.003906,25 L7.003906,25 C6.453125,25 6.003906,24.550781 6.003906,24 C6.003906,23.445313 6.453125,23 7.003906,23 Z M7.003906,29 L18.003906,29 C18.554688,29 19.003906,29.445313 19.003906,30 C19.003906,30.550781 18.554688,31 18.003906,31 L7.003906,31 C6.453125,31 6.003906,30.550781 6.003906,30 C6.003906,29.445313 6.453125,29 7.003906,29 Z M26.003906,29 L29.003906,29 C29.554688,29 30.003906,29.445313 30.003906,30 C30.003906,30.550781 29.554688,31 29.003906,31 L26.003906,31 C25.453125,31 25.003906,30.550781 25.003906,30 C25.003906,29.445313 25.453125,29 26.003906,29 Z M7.003906,35 L21.003906,35 C21.554688,35 22.003906,35.445313 22.003906,36 C22.003906,36.550781 21.558594,37 21.003906,37 L7.003906,37 C6.453125,37 6.003906,36.550781 6.003906,36 C6.003906,35.445313 6.453125,35 7.003906,35 Z M26.003906,35 L29.003906,35 C29.554688,35 30.003906,35.445313 30.003906,36 C30.003906,36.550781 29.558594,37 29.003906,37 L26.003906,37 C25.453125,37 25.003906,36.550781 25.003906,36 C25.003906,35.445313 25.453125,35 26.003906,35 Z" id="Shape"></path>
            </g>
        </g>
    </g>
</svg>