<?xml version="1.0" encoding="UTF-8"?>
<svg width="14px" height="13px" viewBox="0 0 14 13" version="1.1" xmlns="http://www.w3.org/2000/svg" xmlns:xlink="http://www.w3.org/1999/xlink">
    <g id="Page-1" stroke="none" stroke-width="1" fill="none" fill-rule="evenodd">
        <g id="approval" fill="#393939" fill-rule="nonzero">
            <g id="a-link">
                <path d="M2.5,0 C1.676,0 1,0.676 1,1.5 L1,4 L2,4 L2,1.5 C2,1.219 2.219,1 2.5,1 L12.5,1 C12.781,1 13,1.219 13,1.5 L13,11.5 C13,11.781 12.781,12 12.5,12 L2.5,12 C2.36689975,12.0016267 2.23877548,11.9494708 2.14465236,11.8553476 C2.05052924,11.7612245 1.99837334,11.6331003 2,11.5 L2,9 L1,9 L1,11.5 C1,12.324 1.676,13 2.5,13 L12.5,13 C13.324,13 14,12.324 14,11.5 L14,1.5 C14,0.676 13.324,0 12.5,0 L2.5,0 Z M6.727,3.023 L6.023,3.727 L8.293,6 L0,6 L0,7 L8.293,7 L6.023,9.27 L6.727,9.98 L10.207,6.5 L6.727,3.023 Z" id="a"></path>
            </g>
        </g>
    </g>
</svg>