<?xml version="1.0" encoding="UTF-8"?>
<svg width="12px" height="12px" viewBox="0 0 12 12" version="1.1" xmlns="http://www.w3.org/2000/svg" xmlns:xlink="http://www.w3.org/1999/xlink">
    <!-- Generator: Sketch 53 (72520) - https://sketchapp.com -->
    <title>education</title>
    <desc>Created with Sketch.</desc>
    <g id="Page-4" stroke="none" stroke-width="1" fill="none" fill-rule="evenodd">
        <g id="education" fill="#9EAAB1" fill-rule="nonzero">
            <g id="Shape">
                <path d="M0.5,0 C0.222656,0 0,0.222656 0,0.5 L0,11.5 C0,11.777344 0.222656,12 0.5,12 L11.5,12 C11.777344,12 12,11.777344 12,11.5 L12,0.5 C12,0.222656 11.777344,0 11.5,0 L7.5,0 C7.222656,0 7,0.222656 7,0.5 L7,2 L5,2 L5,0.5 C5,0.222656 4.777344,0 4.5,0 L0.5,0 Z M1,1 L4,1 L4,2 L2,2 L2,3 L4,3 L4,9 L2,9 L2,10 L4,10 L4,11 L1,11 L1,1 Z M8,1 L11,1 L11,2 L9,2 L9,3 L11,3 L11,9 L9,9 L9,10 L11,10 L11,11 L8,11 L8,1 Z M5,3 L7,3 L7,4 L6,4 L6,5 L7,5 L7,9 L6,9 L6,10 L7,10 L7,11 L5,11 L5,3 Z" id="path-1"></path>
            </g>
        </g>
    </g>
</svg>