<?xml version="1.0" encoding="UTF-8"?>
<svg width="10px" height="11px" viewBox="0 0 10 11" version="1.1" xmlns="http://www.w3.org/2000/svg" xmlns:xlink="http://www.w3.org/1999/xlink">
    <!-- Generator: Sketch 53 (72520) - https://sketchapp.com -->
    <title>personal-details</title>
    <desc>Created with Sketch.</desc>
    <g id="Page-2" stroke="none" stroke-width="1" fill="none" fill-rule="evenodd">
        <g id="personal-details" fill="#393939" fill-rule="nonzero">
            <g id="Shape">
                <path d="M5,0 C3.347656,0 2,1.347656 2,3 C2,4.652344 3.347656,6 5,6 C6.652344,6 8,4.652344 8,3 C8,1.347656 6.652344,0 5,0 Z M5,6 C2.246094,6 0,8.246094 0,11 L1,11 C1,8.785156 2.785156,7 5,7 C7.214844,7 9,8.785156 9,11 L10,11 C10,8.246094 7.753906,6 5,6 Z M5,1 C6.109375,1 7,1.890625 7,3 C7,4.109375 6.109375,5 5,5 C3.890625,5 3,4.109375 3,3 C3,1.890625 3.890625,1 5,1 Z" id="path-1"></path>
            </g>
        </g>
    </g>
</svg>