<?xml version="1.0" encoding="UTF-8"?>
<svg width="13px" height="13px" viewBox="0 0 13 13" version="1.1" xmlns="http://www.w3.org/2000/svg" xmlns:xlink="http://www.w3.org/1999/xlink">
    <!-- Generator: Sketch 53 (72520) - https://sketchapp.com -->
    <title>questions</title>
    <desc>Created with Sketch.</desc>
    <g id="Page-5" stroke="none" stroke-width="1" fill="none" fill-rule="evenodd">
        <g id="questions" fill="#393939" fill-rule="nonzero">
            <g id="Shape">
                <path d="M1.5,0 C0.675781,0 0,0.675781 0,1.5 L0,11.5 C0,12.324219 0.675781,13 1.5,13 L11.5,13 C12.324219,13 13,12.324219 13,11.5 L13,1.5 C13,0.675781 12.324219,0 11.5,0 L1.5,0 Z M1.5,1 L11.5,1 C11.78125,1 12,1.21875 12,1.5 L12,11.5 C12,11.78125 11.78125,12 11.5,12 L1.5,12 C1.21875,12 1,11.78125 1,11.5 L1,1.5 C1,1.21875 1.21875,1 1.5,1 Z M3,4 L3,5 L10,5 L10,4 L3,4 Z M3,6 L3,7 L10,7 L10,6 L3,6 Z M3,8 L3,9 L8,9 L8,8 L3,8 Z" id="path-1"></path>
            </g>
        </g>
    </g>
</svg>