<?xml version="1.0" encoding="UTF-8"?>
<svg width="14px" height="11px" viewBox="0 0 14 11" version="1.1" xmlns="http://www.w3.org/2000/svg" xmlns:xlink="http://www.w3.org/1999/xlink">
    <!-- Generator: Sketch 53 (72520) - https://sketchapp.com -->
    <title>work-experience</title>
    <desc>Created with Sketch.</desc>
    <g id="Page-3" stroke="none" stroke-width="1" fill="none" fill-rule="evenodd">
        <g id="work-experience" fill="#393939" fill-rule="nonzero">
            <g id="Shape">
                <path d="M1.5,0 C0.675781,0 0,0.675781 0,1.5 L0,9.5 C0,10.324219 0.675781,11 1.5,11 L12.5,11 C13.324219,11 14,10.324219 14,9.5 L14,1.5 C14,0.675781 13.324219,0 12.5,0 L1.5,0 Z M1.5,1 L12.5,1 C12.78125,1 13,1.21875 13,1.5 L13,9.5 C13,9.78125 12.78125,10 12.5,10 L11,10 C11,9.449219 10.550781,9 10,9 C9.449219,9 9,9.449219 9,10 L5,10 C5,9.449219 4.550781,9 4,9 C3.449219,9 3,9.449219 3,10 L1.5,10 C1.21875,10 1,9.78125 1,9.5 L1,1.5 C1,1.21875 1.21875,1 1.5,1 Z M5,2 C3.902344,2 3,2.902344 3,4 C3,4.535156 3.21875,5.023438 3.5625,5.382813 C2.636719,5.894531 2,6.871094 2,8 L3,8 C3,6.890625 3.890625,6 5,6 C6.109375,6 7,6.890625 7,8 L8,8 C8,6.871094 7.363281,5.894531 6.4375,5.382813 C6.78125,5.023438 7,4.535156 7,4 C7,2.902344 6.097656,2 5,2 Z M5,3 C5.558594,3 6,3.441406 6,4 C6,4.558594 5.558594,5 5,5 C4.441406,5 4,4.558594 4,4 C4,3.441406 4.441406,3 5,3 Z M9,4 L9,5 L12,5 L12,4 L9,4 Z M9,6 L9,7 L12,7 L12,6 L9,6 Z" id="path-1"></path>
            </g>
        </g>
    </g>
</svg>