<svg xmlns="http://www.w3.org/2000/svg" width="40" height="40" viewBox="0 0 40 40">
    <g fill="none" fill-rule="nonzero">
        <path fill="#CFD8DC" d="M40 20c0 11.044-8.956 20-20 20S0 31.044 0 20 8.956 0 20 0s20 8.956 20 20z"/>
        <path fill="#448AFF" d="M37 20c0 9.391-7.609 17-17 17S3 29.391 3 20 10.609 3 20 3s17 7.609 17 17z"/>
        <path fill="#FF3D00" d="M17.898 17.898l4.203 4.203L31.3 8.699z"/>
        <path fill="#BF360C" d="M20 20L31.301 8.699l-9.199 13.402z"/>
        <path fill="#FFF" d="M17.898 17.898L8.699 31.3l13.402-9.199z"/>
        <path fill="#BDBDBD" d="M20 20L8.699 31.301l13.402-9.199z"/>
        <path fill="#BBDEFB" d="M13.102 6.699c.598-.301 1.199-.598 1.797-.801l1.203 2.703-1.801.797-1.199-2.699zM32 21h2.898c0-.301.102-.699.102-1 0-.301 0-.699-.102-1H32v2zM8.699 10.102l2.102 2.098 1.398-1.398L10.101 8.7l-1.402 1.402zm12.301-5C20.699 5 20.301 5 20 5c-.301 0-.699 0-1 .102V8h2V5.102zM26.398 6.5c-.598-.301-1.199-.5-1.898-.699l-1.102 2.801 1.902.699L26.398 6.5zM8.5 16.5l.699-1.898L6.5 13.5c-.301.602-.5 1.199-.699 1.898L8.5 16.5zM8 19H5.102C5 19.301 5 19.699 5 20c0 .301 0 .699.102 1H8v-2zm23.5 4.5l-.699 1.898L33.5 26.5c.301-.602.5-1.199.699-1.898L31.5 23.5zm2.602-8.602c-.203-.598-.5-1.199-.801-1.797L30.602 14.3l.797 1.801 2.703-1.203zm-2.801 15L29.199 27.8l-1.398 1.398 2.098 2.102 1.402-1.402zM9.398 25.699l-.797-1.801-2.703 1.203c.203.598.5 1.199.801 1.797l2.699-1.199zm16.301 4.903l-1.801.797 1.203 2.703c.598-.203 1.199-.5 1.797-.801l-1.199-2.699zM16.5 31.5l-1.898-.699L13.5 33.5c.602.301 1.199.5 1.898.699L16.5 31.5zm4.5 3.398V32h-2v2.898c.301 0 .699.102 1 .102.301 0 .699 0 1-.102z"/>
    </g>
</svg>
