<svg xmlns="http://www.w3.org/2000/svg" width="38" height="40" viewBox="0 0 38 40">
    <path fill="#D7D7D7" fill-rule="nonzero" d="M24.4 4.4c1.1-.7 5.3-3.3 8.8-3.3 6.6 0 3.5 7.7 3.5 7.7l.2.2c3.8-9.7-3.5-9-3.5-9-4.1 0-9.3 3.4-10.4 4.2-1-.1-2-.2-3.1-.2C4.7 4 2.4 15.6 2.1 19c-.1.5-.1.8-.1.8V19.7C8.1 11 16.5 7.5 16.5 7.5v.6C4 16.6 1 29.2.3 31.7c-.8 2.6-.3 8.3 5 8.3s10.4-4.2 10.4-4.2 1.2.2 4.3.2c13.2 0 16.7-12 16.7-12H25s-1.2 4-5.4 4c-5.8 0-5.6-6-5.6-6h23c.4-5.5-1.1-9.3-3.3-11.9-1.8-2.6-4.7-4.8-9.3-5.7zM15 35.6s-7.8 4.9-11.4 1.5c-1.9-3.4 1.2-8.2 1.2-8.2s2.4 4.9 10.2 6.7zM14 17s-.1-5 5.5-5c5.4 0 5.5 5 5.5 5H14z"/>
</svg>
