<svg xmlns="http://www.w3.org/2000/svg" width="36" height="38" viewBox="0 0 36 38">
    <path fill="#1976D2" fill-rule="nonzero" d="M7.3 10.1C2.7 12.9 0 16.9 0 16.9S.7 8.5 7.3 3.6c2.6-2 6.2-3.6 11-3.6 1.8 0 5.6.3 9 2.4 3.4 2.1 4.8 3.8 6.4 6.3.7 1.1 1.2 2.5 1.5 3.8.6 2.5.7 5.6.7 5.6V22H11s-.1 8.1 11.2 8.1c3.9 0 5.3-.6 6.6-1 2-.6 4.2-2.1 4.2-2.1v8s-4.9 3-11.9 3c-2 0-4-.2-6-.8-1.7-.6-5.4-2-7.8-5.5-.9-1.2-1.8-2.9-2.3-4.5-.5-1.7-.5-3.4-.5-4.3 0-3.5 1.2-6.8 3.3-9.2C10.6 10.6 14 9 14 9s-3 2.8-3 6h14s.1-8-7.7-8c-3.2 0-7.2 1.4-10 3.1z"/>
</svg>
