<svg xmlns="http://www.w3.org/2000/svg" width="40" height="40" viewBox="0 0 40 40">
    <g fill="none" fill-rule="nonzero">
        <path fill="#4CAF50" d="M40 20c0 11.044-8.956 20-20 20S0 31.044 0 20 8.956 0 20 0s20 8.956 20 20z"/>
        <path fill="#FFC107" d="M20 0v20l8 4-8.843 16H20c11.053 0 20-8.947 20-20S31.053 0 20 0z"/>
        <path fill="#4CAF50" d="M40 20c0 11.044-8.956 20-20 20S0 31.044 0 20 8.956 0 20 0s20 8.956 20 20z"/>
        <path fill="#FFC107" d="M20 0v20l8 4-8.843 16H20c11.053 0 20-8.947 20-20S31.053 0 20 0z"/>
        <path fill="#F44336" d="M37.84 11H20v13l-3-1L3.16 9.26h-.02C6.68 3.69 12.91 0 20 0c7.8 0 14.55 4.48 17.84 11z"/>
        <path fill="#DD2C00" d="M3.158 9.264l8.843 14.862L17 23z"/>
        <path fill="#558B2F" d="M19.157 40l8.934-16.059L24 21z"/>
        <path fill="#F9A825" d="M37.865 11H20l-1.579 4.58z"/>
        <path fill="#FFF" d="M29 20c0 4.969-4.031 9-9 9s-9-4.031-9-9 4.031-9 9-9 9 4.031 9 9z"/>
        <path fill="#2196F3" d="M27 20c0 3.867-3.133 7-7 7s-7-3.133-7-7 3.133-7 7-7 7 3.133 7 7z"/>
    </g>
</svg>
