<?xml version="1.0" encoding="UTF-8"?>
<svg width="31px" height="30px" viewBox="0 0 31 30" version="1.1" xmlns="http://www.w3.org/2000/svg" xmlns:xlink="http://www.w3.org/1999/xlink">
    <!-- Generator: Sketch 51.1 (57501) - http://www.bohemiancoding.com/sketch -->
    <title>HelloCrowd Logo</title>
    <desc>Created with Sketch.</desc>
    <defs></defs>
    <g id="Recruit-Setup" stroke="none" stroke-width="1" fill="none" fill-rule="evenodd">
        <g id="Default-Screen" transform="translate(-15.000000, -15.000000)" fill="#FFFFFF">
            <path d="M43.8648876,26.5838237 C45.3831405,26.5829722 45.5545837,28.039133 44.1531851,28.5475119 L36.4791843,31.3278423 L40.023196,40.9436129 C40.4129947,41.9986908 39.4841309,42.7063339 38.646533,41.9544099 L31.1729758,35.2518125 L25.2407011,39.6160371 C23.8358907,40.6498261 23.1134411,39.4048512 23.4392684,38.6427085 L26.6284525,31.1898903 L22.7381427,29.6868939 C21.8937211,29.3598964 20.6663245,28.3082247 21.1158297,26.6459873 L21.9269862,23.6476586 C22.2698725,22.3788401 23.9646863,22.2715441 24.0960408,23.5761279 L24.3996913,26.5889331 L43.8648876,26.5838237 Z M31.5189327,19.400012 C33.1600106,19.400012 34.4914672,20.7284394 34.4914672,22.3676847 C34.4914672,24.0060785 33.1600106,25.3345059 31.5189327,25.3345059 C29.8778549,25.3345059 28.5472512,24.0060785 28.5472512,22.3676847 C28.5472512,20.7284394 29.8778549,19.400012 31.5189327,19.400012 Z M27.268507,22.0570371 L17.5226881,22.1260131 C14.2737975,21.8288201 15.8116682,14.2993618 18.7842027,15.0529888 L27.5798341,20.7805546 C28.1803116,21.1714188 28.0463983,22.0510762 27.268507,22.0570371 Z M18.5359939,15.344221 C17.5610709,15.1739098 16.5170588,16.4818998 16.2057316,18.2642066 C15.8944045,20.0473649 16.4334696,21.6304075 17.4083926,21.7998672 C18.3841687,21.9701784 19.4281808,20.6621883 19.7395079,18.87903 C20.0499821,17.0975748 19.51177,15.5145322 18.5359939,15.344221 Z M29.8601135,15.3292336 C36.4943669,15.3292336 42.1136085,19.6721693 44.0233659,25.6654206 C43.9713359,25.6628659 43.918453,25.6611628 43.864717,25.6611628 L42.122991,25.6620143 C40.2857344,20.677857 35.4878846,17.1234621 29.8601135,17.1234621 C28.1635938,17.1234621 26.5421338,17.4462019 25.0545872,18.0346271 L23.2642429,16.8688469 C25.2516189,15.8835966 27.4914684,15.3292336 29.8601135,15.3292336 Z M44.6954914,29.3211506 C44.7116974,29.6004609 44.720227,29.8814744 44.720227,30.164191 C44.720227,34.0609114 43.2147683,37.6050875 40.7531515,40.2525752 L40.0452022,38.3289101 C41.8449289,36.0944271 42.9230591,33.2553394 42.9230591,30.164191 C42.9230591,30.1011759 42.9213532,30.0381607 42.9213532,29.9751456 L44.4686064,29.4148217 C44.5479308,29.3850173 44.6229905,29.3543613 44.6954914,29.3211506 Z M37.9750899,42.5926511 C35.6422688,44.1143817 32.8548247,45 29.8601135,45 C21.6547242,45 15,38.3561599 15,30.164191 C15,27.5405469 15.6840668,25.0752923 16.8816101,22.9370351 C17.0615827,22.9906831 17.2475261,23.0273 17.43944,23.0443311 L17.4846465,23.0485889 L18.9201631,23.0383703 C17.5784711,25.087214 16.7980208,27.534586 16.7980208,30.164191 C16.7980208,37.3658003 22.6467063,43.2057715 29.8601135,43.2057715 C32.3200244,43.2057715 34.6204334,42.5262298 36.5856326,41.3459731 L37.9750899,42.5926511 Z" id="HelloCrowd-Logo"></path>
        </g>
    </g>
</svg>