<?xml version="1.0" encoding="UTF-8"?>
<svg width="13px" height="13px" viewBox="0 0 13 13" version="1.1" xmlns="http://www.w3.org/2000/svg" xmlns:xlink="http://www.w3.org/1999/xlink">
    <!-- Generator: Sketch 51.1 (57501) - http://www.bohemiancoding.com/sketch -->
    <title>Shape</title>
    <desc>Created with Sketch.</desc>
    <defs></defs>
    <g id="Recruit-Setup" stroke="none" stroke-width="1" fill="none" fill-rule="evenodd">
        <g id="Add-Job---Applications" transform="translate(-628.000000, -282.000000)" fill="#505F6E" fill-rule="nonzero">
            <g id="icons8-pin_2" transform="translate(628.000000, 282.000000)">
                <path d="M6.5,0 C2.9160714,0 0,2.9160714 0,6.5 C0,10.083929 2.9160714,13 6.5,13 C10.083929,13 13,10.083929 13,6.5 C13,2.9160714 10.083929,0 6.5,0 Z M6.5,1 C9.543488,1 12,3.4565116 12,6.5 C12,9.543488 9.543488,12 6.5,12 C3.4565116,12 1,9.543488 1,6.5 C1,3.4565116 3.4565116,1 6.5,1 Z M7.5976562,3.0097656 C7.5026563,2.9911406 7.4020937,2.9996094 7.3085938,3.0371094 C7.1215938,3.1141094 7,3.298 7,3.5 L7,4.2929688 L6.2929688,5 L4.5,5 C4.298,5 4.1141094,5.1225938 4.0371094,5.3085938 C3.9601094,5.4945938 4.0044844,5.7105156 4.1464844,5.8535156 L5.2929688,7 L3.0214844,9.271484 L3.7285156,9.978516 L6,7.7070312 L7.1464844,8.8535156 C7.2424844,8.9485156 7.37,9 7.5,9 C7.564,9 7.6304063,8.9878906 7.6914062,8.9628906 C7.8784062,8.8858906 8,8.702 8,8.5 L8,6.7070312 L8.7070312,6 L9.5,6 C9.702,6 9.884891,5.8784063 9.962891,5.6914062 C10.040891,5.5044062 9.996516,5.2894844 9.853516,5.1464844 L7.8535156,3.1464844 C7.7820156,3.0754844 7.6926562,3.0283906 7.5976562,3.0097656 Z" id="Shape"></path>
            </g>
        </g>
    </g>
</svg>