<?xml version="1.0" encoding="UTF-8"?>
<svg width="14px" height="13px" viewBox="0 0 14 13" version="1.1" xmlns="http://www.w3.org/2000/svg" xmlns:xlink="http://www.w3.org/1999/xlink">
    <!-- Generator: Sketch 51.1 (57501) - http://www.bohemiancoding.com/sketch -->
    <title>icons8-questions</title>
    <desc>Created with Sketch.</desc>
    <defs></defs>
    <g id="Symbols" stroke="none" stroke-width="1" fill="none" fill-rule="evenodd">
        <g id="Left-Menu" transform="translate(-42.000000, -294.000000)" fill="#8C93A3" fill-rule="nonzero">
            <g id="icons8-questions" transform="translate(42.000000, 294.000000)">
                <path d="M1.5,0 C0.675781,0 0,0.675781 0,1.5 L0,9.5 C0,10.324219 0.675781,11 1.5,11 L3,11 L3,11.5 C3,12.324219 3.675781,13 4.5,13 L12.5,13 C13.324219,13 14,12.324219 14,11.5 L14,3.5 C14,2.675781 13.324219,2 12.5,2 L11,2 L11,1.5 C11,0.675781 10.324219,0 9.5,0 L1.5,0 Z M1.5,1 L9.5,1 C9.78125,1 10,1.21875 10,1.5 L10,9.5 C10,9.78125 9.78125,10 9.5,10 L1.5,10 C1.21875,10 1,9.78125 1,9.5 L1,1.5 C1,1.21875 1.21875,1 1.5,1 Z M5.558594,2.003906 C4.347656,2.070313 3.359375,3.085938 3.359375,4.320313 L4.359375,4.320313 C4.359375,3.507813 5.0625,2.875 5.917969,3.023438 C6.535156,3.128906 7.019531,3.730469 7,4.359375 C6.984375,4.917969 6.660156,5.269531 6.183594,5.476563 L6.179688,5.476563 C5.886719,5.609375 5.605469,5.734375 5.367188,5.984375 C5.128906,6.234375 5,6.605469 5,7 L6,7 C6,6.777344 6.027344,6.742188 6.089844,6.675781 C6.152344,6.609375 6.3125,6.515625 6.585938,6.394531 C7.332031,6.066406 7.96875,5.355469 8,4.390625 C8.03125,3.253906 7.21875,2.230469 6.089844,2.035156 C5.910156,2.003906 5.730469,1.996094 5.558594,2.003906 Z M11,3 L12.5,3 C12.78125,3 13,3.21875 13,3.5 L13,11.5 C13,11.78125 12.78125,12 12.5,12 L4.5,12 C4.21875,12 4,11.78125 4,11.5 L4,11 L9.5,11 C10.324219,11 11,10.324219 11,9.5 L11,3 Z M5,8 L5,9 L6,9 L6,8 L5,8 Z" id="Shape"></path>
            </g>
        </g>
    </g>
</svg>